<?xml version="1.0" encoding="utf-8"?>
<!-- Generator: Adobe Illustrator 16.0.0, SVG Export Plug-In . SVG Version: 6.00 Build 0)  -->
<!DOCTYPE svg PUBLIC "-//W3C//DTD SVG 1.1//EN" "http://www.w3.org/Graphics/SVG/1.1/DTD/svg11.dtd">
<svg version="1.1" id="Layer_1" xmlns="http://www.w3.org/2000/svg" xmlns:xlink="http://www.w3.org/1999/xlink" x="0px" y="0px"
	 viewBox="0 0 257 75" enable-background="new 0 0 257 75" xml:space="preserve">
<g>
	<path fill="#636466" d="M6.871,74.813h2.308v-4.338c0-1.162,0.189-3.002,1.722-3.002c1.326,0,1.326,1.18,1.326,2.014v5.326h2.307
		v-4.338c0-1.162,0.189-3.002,1.722-3.002c1.326,0,1.326,1.18,1.326,2.014v5.326h2.308v-5.639c0-1.996-0.62-3.506-2.807-3.506
		c-1.084,0-2.238,0.503-2.772,1.58c-0.5-1.111-1.378-1.58-2.618-1.58c-0.861,0-1.911,0.365-2.635,1.458H9.024v-1.249H6.871V74.813
		L6.871,74.813z"/>
	<path fill-rule="evenodd" clip-rule="evenodd" fill="#636466" d="M22.687,68.34c0.775-0.589,1.757-0.971,2.739-0.971
		c1.36,0,1.997,0.485,1.997,1.925h-1.274c-0.964,0-2.101,0.087-2.979,0.521s-1.516,1.215-1.516,2.551c0,1.7,1.533,2.654,3.1,2.654
		c1.051,0,2.204-0.556,2.739-1.544h0.034c0.017,0.277,0.017,0.867,0.104,1.336h2.031c-0.051-0.694-0.085-1.318-0.103-1.996
		c-0.017-0.658-0.035-1.335-0.035-2.238v-1.145c0-2.637-1.119-3.766-3.822-3.766c-0.982,0-2.187,0.262-3.083,0.677L22.687,68.34
		L22.687,68.34z M23.858,72.227c0-1.37,1.532-1.543,2.565-1.543h0.999c0,0.693-0.104,1.335-0.482,1.839
		c-0.362,0.485-0.913,0.798-1.618,0.798C24.495,73.32,23.858,72.99,23.858,72.227L23.858,72.227z"/>
	<polygon fill="#636466" points="31.852,74.813 34.16,74.813 34.16,70.475 34.194,70.475 37.156,74.813 40.083,74.813 
		36.364,69.867 39.67,65.877 36.95,65.877 34.194,69.45 34.16,69.45 34.16,61.8 31.852,61.8 31.852,74.813 	"/>
	<path fill-rule="evenodd" clip-rule="evenodd" fill="#636466" d="M43.015,69.469c0.104-1.197,0.758-2.1,2.049-2.1
		s1.808,0.971,1.877,2.1H43.015L43.015,69.469z M48.491,72.418c-0.861,0.485-1.825,0.902-2.945,0.902
		c-1.429,0-2.428-0.815-2.531-2.256h6.13c0-3.123-0.93-5.396-4.219-5.396c-2.755,0-4.116,2.135-4.116,4.72
		c0,2.933,1.705,4.633,4.632,4.633c1.24,0,2.204-0.243,3.048-0.711V72.418L48.491,72.418z"/>
	<path fill="#636466" d="M56.381,65.998c-0.723-0.155-1.429-0.33-2.514-0.33c-1.808,0-3.479,0.851-3.479,2.777
		c0,3.227,4.012,2.029,4.012,3.781c0,0.869-0.93,1.094-1.515,1.094c-0.792,0-1.55-0.225-2.273-0.591l-0.138,1.909
		c0.844,0.226,1.739,0.382,2.617,0.382c1.877,0,3.72-0.833,3.72-2.915c0-3.227-4.012-2.325-4.012-3.747
		c0-0.764,0.741-0.989,1.36-0.989c0.844,0,1.36,0.139,2.066,0.382L56.381,65.998L56.381,65.998z"/>
	<polygon fill="#ED1C2E" points="63.393,74.813 65.804,74.813 65.804,62.701 63.393,62.701 63.393,74.813 	"/>
	<polygon fill="#ED1C2E" points="70.574,74.813 72.985,74.813 72.985,64.609 76.429,64.609 76.429,62.701 67.131,62.701 
		67.131,64.609 70.574,64.609 70.574,74.813 	"/>
	<path fill-rule="evenodd" clip-rule="evenodd" fill="#636466" d="M84.183,69.469c0.103-1.197,0.758-2.1,2.049-2.1
		c1.292,0,1.808,0.971,1.877,2.1H84.183L84.183,69.469z M89.659,72.418c-0.861,0.485-1.825,0.902-2.945,0.902
		c-1.429,0-2.428-0.815-2.531-2.256h6.13c0-3.123-0.93-5.396-4.219-5.396c-2.755,0-4.115,2.135-4.115,4.72
		c0,2.933,1.705,4.633,4.632,4.633c1.24,0,2.205-0.243,3.048-0.711V72.418L89.659,72.418z"/>
	<path fill-rule="evenodd" clip-rule="evenodd" fill="#636466" d="M92.59,68.34c0.775-0.589,1.756-0.971,2.738-0.971
		c1.36,0,1.997,0.485,1.997,1.925h-1.274c-0.964,0-2.101,0.087-2.979,0.521c-0.877,0.435-1.515,1.215-1.515,2.551
		c0,1.7,1.533,2.654,3.1,2.654c1.05,0,2.204-0.556,2.738-1.544h0.034c0.017,0.277,0.017,0.867,0.104,1.336h2.032
		c-0.052-0.694-0.086-1.318-0.104-1.996c-0.017-0.658-0.034-1.335-0.034-2.238v-1.145c0-2.637-1.12-3.766-3.823-3.766
		c-0.982,0-2.187,0.262-3.083,0.677L92.59,68.34L92.59,68.34z M93.761,72.227c0-1.37,1.533-1.543,2.566-1.543h0.998
		c0,0.693-0.103,1.335-0.481,1.839c-0.362,0.485-0.913,0.798-1.619,0.798C94.398,73.32,93.761,72.99,93.761,72.227L93.761,72.227z"
		/>
	<path fill="#636466" d="M107.127,65.998c-0.723-0.155-1.429-0.33-2.514-0.33c-1.808,0-3.479,0.851-3.479,2.777
		c0,3.227,4.012,2.029,4.012,3.781c0,0.869-0.93,1.094-1.516,1.094c-0.792,0-1.55-0.225-2.273-0.591l-0.138,1.909
		c0.844,0.226,1.739,0.382,2.618,0.382c1.876,0,3.719-0.833,3.719-2.915c0-3.227-4.012-2.325-4.012-3.747
		c0-0.764,0.741-0.989,1.36-0.989c0.843,0,1.36,0.139,2.066,0.382L107.127,65.998L107.127,65.998z"/>
	<path fill-rule="evenodd" clip-rule="evenodd" fill="#636466" d="M109.404,74.813h2.307v-8.936h-2.307V74.813L109.404,74.813z
		 M109.404,64.246h2.307v-2.222h-2.307V64.246L109.404,64.246z"/>
	<path fill-rule="evenodd" clip-rule="evenodd" fill="#636466" d="M115.775,69.469c0.104-1.197,0.758-2.1,2.049-2.1
		s1.808,0.971,1.877,2.1H115.775L115.775,69.469z M121.251,72.418c-0.861,0.485-1.825,0.902-2.945,0.902
		c-1.429,0-2.428-0.815-2.531-2.256h6.13c0-3.123-0.93-5.396-4.219-5.396c-2.755,0-4.116,2.135-4.116,4.72
		c0,2.933,1.705,4.633,4.632,4.633c1.24,0,2.204-0.243,3.048-0.711V72.418L121.251,72.418z"/>
	<path fill="#636466" d="M123.77,74.813h2.308v-3.28c0-1.282,0-3.643,1.876-3.643c0.414,0,0.827,0.069,1.033,0.19v-2.343
		c-0.24-0.069-0.481-0.069-0.706-0.069c-1.378,0-2.325,1.406-2.428,2.238h-0.034v-2.029h-2.049V74.813L123.77,74.813z"/>
	<polygon fill="#636466" points="128.833,74.813 131.244,74.813 131.244,72.383 128.833,72.383 128.833,74.813 	"/>
	<polygon fill="#ED1C2E" points="240.697,75.037 249.667,75.037 249.667,65.999 240.697,65.999 240.697,75.037 	"/>
	<polygon fill="#ED1C2E" points="183.328,75.037 192.297,75.037 192.297,65.999 183.328,65.999 183.328,75.037 	"/>
	<polygon fill="#ED1C2E" points="212.013,75.037 220.982,75.037 220.982,65.999 212.013,65.999 212.013,75.037 	"/>
	<polygon fill="#636466" points="95.333,50.72 105.468,50.72 118.22,15.893 109.226,15.893 100.904,41.253 100.77,41.253 
		92.179,15.893 82.515,15.893 95.333,50.72 	"/>
	<path fill-rule="evenodd" clip-rule="evenodd" fill="#636466" d="M127.833,25.496c3.02-2.3,6.845-3.787,10.671-3.787
		c5.303,0,7.785,1.894,7.785,7.507h-4.967c-3.758,0-8.188,0.337-11.61,2.029c-3.423,1.69-5.906,4.733-5.906,9.94
		c0,6.628,5.974,10.347,12.081,10.347c4.094,0,8.59-2.163,10.671-6.019h0.135c0.066,1.082,0.066,3.381,0.401,5.207h7.92
		c-0.201-2.704-0.335-5.139-0.401-7.777c-0.068-2.568-0.135-5.206-0.135-8.723v-4.463c0-10.279-4.363-14.675-14.9-14.675
		c-3.825,0-8.523,1.015-12.013,2.637L127.833,25.496L127.833,25.496z M132.396,40.645c0-5.343,5.974-6.02,10-6.02h3.893
		c0,2.706-0.402,5.207-1.879,7.169c-1.409,1.894-3.558,3.11-6.309,3.11C134.88,44.904,132.396,43.619,132.396,40.645L132.396,40.645
		z"/>
	<path fill-rule="evenodd" clip-rule="evenodd" fill="#636466" d="M174.224,33.205c0-4.667,1.611-11.091,7.45-11.091
		c5.771,0,8.054,6.221,8.054,11.091c0,4.937-1.946,11.293-7.919,11.293C175.902,44.498,174.224,38.006,174.224,33.205
		L174.224,33.205z M190.063,50.72h8.725V0h-8.993v19.95h-0.135c-2.684-3.313-5.839-4.869-10.335-4.869
		c-10.604,0-14.497,8.521-14.497,18.124c0,9.535,3.893,18.326,14.497,18.326c4.228,0,7.92-1.353,10.604-4.733h0.135V50.72
		L190.063,50.72z"/>
	<path fill="#636466" d="M255.256,16.366c-2.817-0.609-5.57-1.285-9.798-1.285c-7.048,0-13.558,3.313-13.558,10.82
		c0,12.579,15.638,7.912,15.638,14.743c0,3.381-3.624,4.26-5.906,4.26c-3.087,0-6.04-0.879-8.858-2.3l-0.537,7.439
		c3.288,0.88,6.778,1.487,10.201,1.487c7.315,0,14.497-3.246,14.497-11.361c0-12.578-15.638-9.061-15.638-14.607
		c0-2.976,2.886-3.854,5.302-3.854c3.289,0,5.303,0.541,8.054,1.487L255.256,16.366L255.256,16.366z"/>
	<polygon fill="#636466" points="211.959,50.72 220.952,50.72 220.952,15.893 211.959,15.893 211.959,50.72 	"/>
	<polygon fill="#636466" points="211.955,9.537 220.925,9.537 220.925,0.5 211.955,0.5 211.955,9.537 	"/>
	<polygon fill="#ED1C2E" points="64.184,9.536 73.153,9.536 73.153,0.498 64.184,0.498 64.184,9.536 	"/>
	<polygon fill="#ED1C2E" points="64.184,50.72 73.178,50.72 73.178,15.893 64.184,15.893 64.184,50.72 	"/>
	<path fill="#ED1C2E" d="M35.499,50.72h8.791V37.939C43.997,21.07,52.905,24.72,52.905,24.72v-9.569
		c0-0.098-6.767,0.728-8.517,6.178l-0.006-5.439l-8.883,0.002V50.72L35.499,50.72z"/>
	<polygon fill="#ED1C2E" points="35.43,9.536 44.399,9.536 44.399,0.498 35.43,0.498 35.43,9.536 	"/>
	<path fill="#ED1C2E" d="M6.644,40.238c0,6.897,3.893,11.293,10.94,11.293c2.685,0,4.766-0.27,6.645-0.812l-0.269-7.168
		c-0.939,0.608-2.483,0.946-4.094,0.946c-3.423,0-4.229-2.772-4.229-5.747V22.52h7.987v-6.627H0v6.627h6.644V40.238L6.644,40.238z"
		/>
	<polygon fill="#ED1C2E" points="6.599,9.536 15.568,9.536 15.568,0.498 6.599,0.498 6.599,9.536 	"/>
</g>
</svg>
