<?xml version="1.0" encoding="utf-8"?>
<!-- Generator: Adobe Illustrator 16.0.0, SVG Export Plug-In . SVG Version: 6.00 Build 0)  -->
<!DOCTYPE svg PUBLIC "-//W3C//DTD SVG 1.1//EN" "http://www.w3.org/Graphics/SVG/1.1/DTD/svg11.dtd">
<svg version="1.1" id="Layer_1" xmlns="http://www.w3.org/2000/svg" xmlns:xlink="http://www.w3.org/1999/xlink" x="0px" y="0px"
	 viewBox="0 0 320 50" enable-background="new 0 0 320 50" xml:space="preserve">
<path d="M203.609,32.078c0,9.294-7.625,16.661-16.833,16.661c-9.209,0-16.833-7.367-16.833-16.661
	c0-9.251,7.624-16.748,16.833-16.748C195.984,15.33,203.609,22.827,203.609,32.078z M172.764,32.029
	c0,7.719,6.266,14.165,14.029,14.165s14.028-6.446,14.028-14.165c0-7.764-6.175-14.165-14.028-14.165
	C178.938,17.864,172.764,24.266,172.764,32.029z"/>
<path d="M224.552,42.605l9.861-26.718h3.179L224.485,50.11l-12.714-34.223h3.114L224.552,42.605z"/>
<path d="M250.264,35.119c0,2.398,0.062,5.14,1.561,7.195c1.414,1.971,3.696,3.518,7.102,3.527c3.715,0.012,5.581-1.514,7.079-3.313
	c1.714-2.056,1.733-4.883,1.733-7.409V15.888h2.71v20.216c0,3.513-0.257,6.297-2.827,8.951c-2.227,2.399-5.439,3.685-8.695,3.685
	c-3.041,0-6.166-1.156-8.351-3.298c-2.827-2.699-3.17-5.654-3.17-9.338V15.888h2.858V35.119z"/>
<polygon points="288.547,14.498 301.324,42.889 301.587,43.476 314.313,14.489 315.35,14.494 319.517,48.286 316.42,48.286 
	313.594,23.029 313.033,24.255 301.82,49.196 301.188,49.197 289.422,23.029 289.208,24.598 286.295,48.301 283.317,48.313 
	287.717,14.489 "/>
<path d="M116.117,11.164c0,0-0.055,14.088,0,21.417c0.108,14.411,6.836,14.2,10.501,14.2v1.522h-23.784V46.78
	c6.471,0.081,11.303-3.836,11.345-13.359c0.059-13.214,0-23.667,0-23.667s-4.131-3.786-5.45-4.565
	c-1.322-0.78-2.94-1.646-5.645-1.646V1.944h26.848l27.392,25.47c0,0,0,2.643,0-10.572c0-12.974-7.168-13.492-10.813-13.492V1.944
	h23.547v1.494c-3.664,0-10.933,0.791-10.933,14.245c0,7.328,0,31.596,0,31.596h-1.802L116.117,11.164z"/>
<path fill="#00B48D" stroke="#00B48D" stroke-width="0.25" d="M159.426,3.345h-6.126c1.682,0.781,4.505,3.424,4.565,5.406
	C157.925,7.189,158.104,4.126,159.426,3.345z"/>
<path fill="#00B48D" stroke="#00B48D" stroke-width="0.25" d="M116.441,46.918h-6.908c1.329-0.616,4.75-4.129,4.805-5.947
	C114.398,42.532,114.595,45.775,116.441,46.918z"/>
<path fill="#00B48D" stroke="#00B48D" stroke-width="0.25" d="M109.542,3.571h13.351l34.432,32.012v11.413
	c0,0-42.468-39.301-43.489-40.142C112.813,6.014,110.022,3.571,109.542,3.571z"/>
<path d="M16.672,35.447c-1.778,5.537,0.635,11.36,8.133,11.36l1.405,0.03v1.464H0.658l-0.003-1.313
	c5.949,0,9.215-4.902,13.317-11.541l19.446-34.72h1.922c0,0,19.583,35.32,21.264,38.323s3.495,7.938,11.544,7.938v1.313H31.617
	v-1.464l2.442-0.03c6.559,0.054,6.167-2.949,4.765-5.774c-0.403-0.813-1.705-2.788-3.28-5.589L16.672,35.447z M34.651,33.703
	c-3.81-6.771-8.802-15.736-8.802-15.736s-8.235,15.068-8.589,15.732L34.651,33.703z"/>
<path fill="#00B48D" stroke="#00B48D" stroke-width="0.25" d="M6.607,46.842h7.538c-0.36-0.421-1.892-2.373-1.562-5.646
	C11.684,42.606,7.869,46.421,6.607,46.842z"/>
<path fill="#00B48D" stroke="#00B48D" stroke-width="0.25" d="M38.945,37.549L26.992,16.226l5.105-9.372l22.322,39.988H39.942
	C41.925,45.76,42.446,43.074,38.945,37.549z"/>
<path d="M73.531,15.888h5.934c4.84,0,8.78,0.643,12.592,3.897c3.684,3.169,5.355,7.495,5.355,12.293
	c0,4.711-1.713,8.866-5.269,12.035c-3.854,3.428-7.71,4.069-12.765,4.199h-5.848V15.888z M79.347,45.586
	c4.177,0,7.673-0.59,10.806-3.541c2.815-2.633,4.267-6.22,4.267-10.033c0-3.905-1.498-7.673-4.449-10.262
	c-3.132-2.769-6.583-3.313-10.625-3.313h-2.769v27.149H79.347z"/>
</svg>
