<?xml version="1.0" encoding="utf-8"?>
<!-- Generator: Adobe Illustrator 16.0.0, SVG Export Plug-In . SVG Version: 6.00 Build 0)  -->
<!DOCTYPE svg PUBLIC "-//W3C//DTD SVG 1.1//EN" "http://www.w3.org/Graphics/SVG/1.1/DTD/svg11.dtd">
<svg version="1.1" id="Layer_1" xmlns="http://www.w3.org/2000/svg" xmlns:xlink="http://www.w3.org/1999/xlink" x="0px" y="0px"
	 viewBox="0 0 265 53" enable-background="new 0 0 265 53" xml:space="preserve">
<path fill="#ADAFB2" d="M16.52,9.022c-0.778,0.123-1.688,0.132-2.316-0.304c0.098-0.23,0.063-1.183,0.063-1.649
	C14,5.37,14.174,3.478,14.122,1.69c2.034-0.608,4.432-0.103,6.582-0.302c0.589-0.058,1.094,0.635,1.094,0.635l0.144,5.09
	c-0.156,0.649,0.025,1.437-0.144,2.093c-0.595,0.055-0.646,0.036-1.246,0.036C19.193,9.243,17.835,9.125,16.52,9.022"/>
<path fill="#ADAFB2" d="M9.789,13.061c-2.731-0.194-5.484,0.042-8.229,0.072c0.144-1.111-0.508-1.908-0.597-2.916
	C1.131,7.58,0.982,4.336,1.939,2.032l7.107-0.215c1.068-0.019,2.037-0.254,3.058-0.374h0.598c0.124,3.867-0.529,7.913-0.289,11.843
	c-0.141,0.011-0.277,0.016-0.406,0.016C11.231,13.302,10.537,13.112,9.789,13.061"/>
<path fill="#005CAB" d="M15.064,22.091c1.722-0.381,3.409,0.114,4.939-0.137c0.231-0.115,0.407-0.069,0.497-0.098
	c0.108-0.033,0.147-0.023,0.252-0.166c0.071-0.15,0.104-0.231,0.122-0.275l0.021-0.03c0.157-0.479,0.318-1.142,0.443-1.68
	c0.059-0.263,0.107-0.481,0.147-0.666c-0.003,0-0.009,0-0.017,0v-0.036c0.017-0.055,0.05-0.166,0.088-0.366l0.017-0.024v-0.02
	c0.15-0.325,0.331-4.96,0.192-7.627l-7.584-0.063l-0.112,1.548c0.686,3.334-0.386,6.521,0.076,9.641H15.064"/>
<polyline fill="#ADAFB2" points="1.995,22.233 1.667,20.77 1.667,15.089 3.706,15.014 9.452,14.77 12.364,14.852 12.2,21.581 
	11.226,21.581 10.506,21.986 9.527,22.233 1.995,22.233 "/>
<g>
	<path fill="#005CAB" d="M25.68,1.284c1.178-0.25,3.038-0.435,4.929-0.435c2.695,0,4.431,0.466,5.733,1.519
		c1.084,0.805,1.735,2.046,1.735,3.69c0,2.011-1.333,3.78-3.533,4.585v0.062c1.984,0.497,4.308,2.138,4.308,5.239
		c0,1.795-0.713,3.159-1.767,4.184c-1.456,1.332-3.812,1.953-7.221,1.953c-1.858,0-3.285-0.125-4.184-0.25V1.284z M28.376,9.837
		h2.448c2.852,0,4.524-1.489,4.524-3.503c0-2.449-1.859-3.409-4.586-3.409c-1.241,0-1.954,0.093-2.387,0.186V9.837z M28.376,19.847
		c0.527,0.092,1.301,0.123,2.263,0.123c2.789,0,5.361-1.022,5.361-4.059c0-2.853-2.448-4.029-5.392-4.029h-2.232V19.847z"/>
	<path fill="#005CAB" d="M52.768,17.802c0,1.549,0.031,2.913,0.124,4.091h-2.417l-0.155-2.449h-0.063
		c-0.712,1.208-2.293,2.79-4.958,2.79c-2.355,0-5.176-1.303-5.176-6.572V6.893h2.727v8.306c0,2.851,0.868,4.771,3.348,4.771
		c1.828,0,3.099-1.27,3.595-2.479c0.156-0.402,0.248-0.898,0.248-1.395V6.893h2.728V17.802z"/>
	<path fill="#005CAB" d="M54.752,19.102c0.807,0.527,2.232,1.086,3.596,1.086c1.982,0,2.913-0.991,2.913-2.231
		c0-1.302-0.775-2.014-2.79-2.758c-2.696-0.962-3.966-2.449-3.966-4.245c0-2.418,1.953-4.402,5.176-4.402
		c1.518,0,2.851,0.434,3.688,0.932l-0.682,1.982c-0.589-0.373-1.674-0.868-3.068-0.868c-1.611,0-2.51,0.931-2.51,2.045
		c0,1.24,0.899,1.798,2.851,2.542c2.604,0.991,3.937,2.292,3.937,4.523c0,2.636-2.045,4.526-5.609,4.526
		c-1.643,0-3.162-0.436-4.215-1.055L54.752,19.102z"/>
	<path fill="#005CAB" d="M68.266,2.678c0.031,0.929-0.651,1.673-1.736,1.673c-0.961,0-1.643-0.744-1.643-1.673
		c0-0.962,0.713-1.706,1.705-1.706C67.615,0.973,68.266,1.716,68.266,2.678z M65.228,21.893v-15h2.728v15H65.228z"/>
	<path fill="#005CAB" d="M70.312,10.953c0-1.552-0.032-2.82-0.125-4.061h2.417l0.156,2.478h0.062c0.744-1.425,2.479-2.82,4.958-2.82
		c2.077,0,5.3,1.241,5.3,6.387v8.955h-2.728v-8.647c0-2.418-0.899-4.43-3.471-4.43c-1.798,0-3.192,1.268-3.657,2.789
		c-0.124,0.34-0.187,0.805-0.187,1.268v9.021h-2.727V10.953z"/>
	<path fill="#005CAB" d="M86.861,14.888c0.063,3.688,2.417,5.207,5.145,5.207c1.953,0,3.13-0.342,4.153-0.774l0.465,1.952
		c-0.959,0.433-2.603,0.961-4.989,0.961c-4.619,0-7.377-3.068-7.377-7.593c0-4.526,2.666-8.09,7.036-8.09
		c4.896,0,6.199,4.309,6.199,7.067c0,0.557-0.062,0.99-0.092,1.27H86.861z M94.858,12.938c0.031-1.737-0.714-4.433-3.781-4.433
		c-2.758,0-3.967,2.541-4.184,4.433H94.858z"/>
	<path fill="#005CAB" d="M98.331,19.102c0.805,0.527,2.23,1.086,3.594,1.086c1.984,0,2.913-0.991,2.913-2.231
		c0-1.302-0.774-2.014-2.789-2.758c-2.697-0.962-3.967-2.449-3.967-4.245c0-2.418,1.952-4.402,5.176-4.402
		c1.519,0,2.851,0.434,3.687,0.932l-0.68,1.982c-0.589-0.373-1.674-0.868-3.068-0.868c-1.612,0-2.511,0.931-2.511,2.045
		c0,1.24,0.899,1.798,2.852,2.542c2.603,0.991,3.935,2.292,3.935,4.523c0,2.636-2.045,4.526-5.609,4.526
		c-1.643,0-3.161-0.436-4.214-1.055L98.331,19.102z"/>
	<path fill="#005CAB" d="M108.433,19.102c0.806,0.527,2.233,1.086,3.595,1.086c1.984,0,2.914-0.991,2.914-2.231
		c0-1.302-0.774-2.014-2.789-2.758c-2.697-0.962-3.968-2.449-3.968-4.245c0-2.418,1.953-4.402,5.176-4.402
		c1.52,0,2.853,0.434,3.688,0.932l-0.682,1.982c-0.589-0.373-1.673-0.868-3.068-0.868c-1.611,0-2.51,0.931-2.51,2.045
		c0,1.24,0.899,1.798,2.851,2.542c2.604,0.991,3.937,2.292,3.937,4.523c0,2.636-2.046,4.526-5.611,4.526
		c-1.642,0-3.161-0.436-4.215-1.055L108.433,19.102z"/>
	<path fill="#005CAB" d="M144.385,1.284c1.643-0.25,3.596-0.435,5.734-0.435c3.873,0,6.632,0.898,8.459,2.604
		c1.861,1.704,2.945,4.122,2.945,7.5c0,3.407-1.053,6.196-3.006,8.118c-1.951,1.953-5.176,3.008-9.236,3.008
		c-1.92,0-3.533-0.094-4.896-0.25V1.284z M147.081,19.753c0.683,0.125,1.675,0.155,2.728,0.155c5.766,0,8.896-3.224,8.896-8.863
		c0.03-4.927-2.759-8.058-8.462-8.058c-1.395,0-2.448,0.123-3.161,0.278V19.753z"/>
	<path fill="#005CAB" d="M164.408,14.888c0.061,3.688,2.417,5.207,5.145,5.207c1.951,0,3.13-0.342,4.152-0.774l0.465,1.952
		c-0.962,0.433-2.605,0.961-4.991,0.961c-4.617,0-7.376-3.068-7.376-7.593c0-4.526,2.666-8.09,7.035-8.09
		c4.898,0,6.198,4.309,6.198,7.067c0,0.557-0.062,0.99-0.093,1.27H164.408z M172.403,12.938c0.03-1.737-0.713-4.433-3.781-4.433
		c-2.759,0-3.968,2.541-4.184,4.433H172.403z"/>
	<path fill="#005CAB" d="M187.595,21.333c-0.713,0.372-2.292,0.9-4.307,0.9c-4.524,0-7.47-3.1-7.47-7.686
		c0-4.618,3.16-7.966,8.057-7.966c1.612,0,3.037,0.403,3.781,0.774l-0.618,2.109c-0.651-0.373-1.674-0.714-3.163-0.714
		c-3.44,0-5.299,2.543-5.299,5.672c0,3.471,2.232,5.61,5.207,5.61c1.551,0,2.573-0.404,3.348-0.745L187.595,21.333z"/>
	<path fill="#005CAB" d="M191.655,2.678c0.03,0.929-0.651,1.673-1.735,1.673c-0.962,0-1.641-0.744-1.641-1.673
		c0-0.962,0.713-1.706,1.701-1.706C191.004,0.973,191.655,1.716,191.655,2.678z M188.617,21.893v-15h2.728v15H188.617z"/>
	<path fill="#005CAB" d="M193.329,19.102c0.808,0.527,2.232,1.086,3.597,1.086c1.981,0,2.912-0.991,2.912-2.231
		c0-1.302-0.774-2.014-2.789-2.758c-2.697-0.962-3.969-2.449-3.969-4.245c0-2.418,1.953-4.402,5.176-4.402
		c1.521,0,2.854,0.434,3.689,0.932l-0.683,1.982c-0.589-0.373-1.674-0.868-3.068-0.868c-1.61,0-2.51,0.931-2.51,2.045
		c0,1.24,0.899,1.798,2.851,2.542c2.604,0.991,3.938,2.292,3.938,4.523c0,2.636-2.045,4.526-5.611,4.526
		c-1.641,0-3.16-0.436-4.215-1.055L193.329,19.102z"/>
	<path fill="#005CAB" d="M206.844,2.678c0.031,0.929-0.651,1.673-1.735,1.673c-0.962,0-1.644-0.744-1.644-1.673
		c0-0.962,0.713-1.706,1.705-1.706C206.192,0.973,206.844,1.716,206.844,2.678z M203.806,21.893v-15h2.728v15H203.806z"/>
	<path fill="#005CAB" d="M222.463,14.267c0,5.549-3.843,7.967-7.47,7.967c-4.058,0-7.19-2.977-7.19-7.717
		c0-5.02,3.286-7.966,7.439-7.966C219.551,6.551,222.463,9.682,222.463,14.267z M210.561,14.423c0,3.284,1.893,5.765,4.559,5.765
		c2.602,0,4.555-2.45,4.555-5.827c0-2.541-1.271-5.764-4.494-5.764C211.958,8.597,210.561,11.574,210.561,14.423z"/>
	<path fill="#005CAB" d="M223.734,10.953c0-1.552-0.031-2.82-0.123-4.061h2.418l0.153,2.478h0.062c0.743-1.425,2.479-2.82,4.96-2.82
		c2.077,0,5.299,1.241,5.299,6.387v8.955h-2.728v-8.647c0-2.418-0.899-4.43-3.471-4.43c-1.797,0-3.191,1.268-3.658,2.789
		c-0.123,0.34-0.185,0.805-0.185,1.268v9.021h-2.728V10.953z"/>
</g>
<path fill="#005CAB" d="M127.083,9.513c-1.252-1.502-1.878-2.818-1.878-3.936c0-1.235,0.525-2.232,1.575-2.991
	c1.048-0.757,2.445-1.136,4.211-1.136c1.328,0,2.366,0.169,3.679,0.8l-1.42,2.259c-0.839-0.475-1.238-0.631-2.12-0.569
	c-0.756,0.052-1.422,0.156-1.984,0.474c-0.579,0.328-0.866,0.764-0.866,1.323c0,0.548,0.232,1.138,0.69,1.764l5.97,7.867
	c0.746-1.294,1.13-2.945,1.138-4.944h2.891c-0.128,2.819-0.931,5.169-2.413,7.059l3.246,4.396h-3.447l-1.673-2.272
	c-1.825,1.72-3.887,2.584-6.184,2.584c-2.171,0-3.874-0.614-5.099-1.847c-1.226-1.225-1.846-2.668-1.846-4.318
	C121.553,13.333,123.396,11.168,127.083,9.513 M133.228,17.673l-4.964-6.549c-1.181,0.662-2.082,1.349-2.699,2.035
	c-0.628,0.707-0.943,1.563-0.943,2.57c0,1.111,0.393,2.033,1.177,2.767c0.792,0.735,1.836,1.107,3.146,1.107
	C130.494,19.604,131.922,18.962,133.228,17.673z"/>
<rect x="25.248" y="27.86" fill="none" width="240.745" height="25.14"/>
<text transform="matrix(1 0 0 1 25.2471 34.9395)"><tspan x="0" y="0" fill="#58595B" font-family="'Frutiger-Light'" font-size="9.9705">Expert in BI </tspan><tspan x="48.745" y="-0.969" fill="#005CAB" font-family="'Frutiger-Light'" font-size="5.8081">•</tspan><tspan x="50.383" y="0" fill="#58595B" font-family="'Frutiger-Light'" font-size="9.9705"> CRM </tspan><tspan x="73.773" y="-0.969" fill="#005CAB" font-family="'Frutiger-Light'" font-size="5.8081">•</tspan><tspan x="75.411" y="0" fill="#58595B" font-family="'Frutiger-Light'" font-size="9.9705"> e-Business </tspan><tspan x="123.298" y="-0.969" fill="#005CAB" font-family="'Frutiger-Light'" font-size="5.8081">•</tspan><tspan x="124.936" y="0" fill="#58595B" font-family="'Frutiger-Light'" font-size="9.9705"> EIM &amp; Consulting</tspan></text>
</svg>
