<?xml version="1.0" encoding="utf-8"?>
<!-- Generator: Adobe Illustrator 12.0.0, SVG Export Plug-In . SVG Version: 6.00 Build 51448)  -->
<!DOCTYPE svg PUBLIC "-//W3C//DTD SVG 1.1//EN" "http://www.w3.org/Graphics/SVG/1.1/DTD/svg11.dtd" [
	<!ENTITY ns_svg "http://www.w3.org/2000/svg">
	<!ENTITY ns_xlink "http://www.w3.org/1999/xlink">
]>
<svg  version="1.1" id="Ebene_1" xmlns="&ns_svg;" xmlns:xlink="&ns_xlink;" width="595" height="420" viewBox="0 0 595 420"
	 overflow="visible" enable-background="new 0 0 595 420" xml:space="preserve">
<line fill="#C6C7C8" x1="228.211" y1="245.536" x2="228.211" y2="273.488"/>
<line fill="none" stroke="#C6C7C8" stroke-width="1.745" stroke-miterlimit="3.864" x1="228.211" y1="245.536" x2="228.211" y2="273.488"/>
<line fill="#C6C7C8" x1="374.262" y1="245.448" x2="374.262" y2="273.398"/>
<line fill="none" stroke="#C6C7C8" stroke-width="1.745" stroke-miterlimit="3.864" x1="374.262" y1="245.448" x2="374.262" y2="273.398"/>
<g>
	<defs>
		<rect id="XMLID_4_" width="595" height="420"/>
	</defs>
	<clipPath id="XMLID_6_">
		<use xlink:href="#XMLID_4_" />
	</clipPath>
	<path clip-path="url(#XMLID_6_)" fill-rule="evenodd" clip-rule="evenodd" fill="#C6C7C8" d="M125.844,262.943
		c0-1.646-0.586-3.016-1.675-3.938c-0.838-0.726-1.76-1.116-3.63-1.396l-2.178-0.335c-1.034-0.168-2.067-0.559-2.681-1.09
		c-0.614-0.529-0.894-1.312-0.894-2.289c0-2.206,1.536-3.687,4.189-3.687c2.094,0,3.407,0.588,4.635,1.704l1.369-1.367
		c-1.704-1.537-3.379-2.179-5.92-2.179c-3.938,0-6.367,2.233-6.367,5.612c0,1.592,0.503,2.82,1.508,3.714
		c0.866,0.754,2.094,1.257,3.658,1.508l2.318,0.362c1.452,0.225,1.954,0.392,2.597,0.95c0.642,0.559,0.949,1.452,0.949,2.484
		c0,2.318-1.787,3.687-4.691,3.687c-2.234,0-3.77-0.53-5.417-2.179l-1.453,1.453c1.871,1.871,3.826,2.625,6.814,2.625
		C123.108,268.585,125.844,266.435,125.844,262.943"/>
	<path clip-path="url(#XMLID_6_)" fill-rule="evenodd" clip-rule="evenodd" fill="#C6C7C8" d="M140.291,261.548
		c0-2.122-0.28-4.05-1.676-5.474c-0.949-0.949-2.262-1.563-3.937-1.563c-1.675,0-2.988,0.614-3.937,1.563
		c-1.397,1.424-1.675,3.352-1.675,5.474s0.278,4.049,1.675,5.473c0.949,0.949,2.262,1.564,3.937,1.564
		c1.675,0,2.988-0.615,3.937-1.564C140.011,265.597,140.291,263.67,140.291,261.548 M138.28,261.548
		c0,1.536-0.083,3.238-1.089,4.244c-0.642,0.643-1.536,1.006-2.513,1.006s-1.843-0.363-2.485-1.006
		c-1.005-1.006-1.117-2.708-1.117-4.244s0.112-3.239,1.117-4.245c0.642-0.642,1.508-1.005,2.485-1.005s1.871,0.363,2.513,1.005
		C138.197,258.309,138.28,260.012,138.28,261.548"/>
	<path clip-path="url(#XMLID_6_)" fill-rule="evenodd" clip-rule="evenodd" fill="#C6C7C8" d="M150.306,256.298v-1.536h-2.932v-2.54
		c0-1.257,0.559-2.012,1.843-2.012h1.089v-1.73h-1.452c-2.345,0-3.49,1.647-3.49,3.686v2.597h-1.759v1.536h1.759v12.119h2.01
		v-12.119H150.306z"/>
	<path clip-path="url(#XMLID_6_)" fill-rule="evenodd" clip-rule="evenodd" fill="#C6C7C8" d="M159.502,268.417v-1.731h-1.061
		c-1.284,0-1.871-0.754-1.871-2.011v-8.377h2.932v-1.536h-2.932v-4.3h-2.01v4.3h-1.731v1.536h1.731v8.434
		c0,2.038,1.172,3.686,3.518,3.686H159.502z"/>
	<polygon clip-path="url(#XMLID_6_)" fill-rule="evenodd" clip-rule="evenodd" fill="#C6C7C8" points="180.929,254.678 
		178.751,254.678 175.623,265.708 171.993,254.678 170.262,254.678 166.66,265.708 163.505,254.678 161.326,254.678 
		165.682,268.417 167.554,268.417 171.128,257.75 174.73,268.417 176.601,268.417 	"/>
	<path clip-path="url(#XMLID_6_)" fill-rule="evenodd" clip-rule="evenodd" fill="#C6C7C8" d="M193.113,268.417v-9.327
		c0-2.987-1.815-4.579-5.501-4.579c-2.234,0-3.63,0.446-4.858,2.038l1.368,1.257c0.81-1.145,1.703-1.563,3.462-1.563
		c2.514,0,3.519,1.005,3.519,3.016v1.313h-4.133c-3.072,0-4.747,1.563-4.747,3.965c0,1.089,0.363,2.122,1.033,2.792
		c0.866,0.895,1.983,1.258,3.882,1.258c1.842,0,2.848-0.363,3.965-1.48v1.313H193.113z M191.103,263.559
		c0,1.145-0.224,1.927-0.698,2.373c-0.866,0.838-1.899,0.921-3.072,0.921c-2.178,0-3.155-0.754-3.155-2.346
		c0-1.591,1.005-2.429,3.071-2.429h3.854V263.559z"/>
	<path clip-path="url(#XMLID_6_)" fill-rule="evenodd" clip-rule="evenodd" fill="#C6C7C8" d="M207.597,255.795
		c-0.978-0.977-1.982-1.284-3.295-1.284c-1.592,0-3.1,0.698-3.853,1.843v-1.676h-2.011v13.739h2.011v-8.433
		c0-2.095,1.284-3.687,3.294-3.687c1.062,0,1.62,0.251,2.374,1.005L207.597,255.795z"/>
	<path clip-path="url(#XMLID_6_)" fill-rule="evenodd" clip-rule="evenodd" fill="#C6C7C8" d="M219.651,262.078v-0.922
		c0-4.076-2.094-6.646-5.641-6.646c-3.491,0-5.641,2.597-5.641,7.037c0,4.858,2.374,7.037,6.004,7.037
		c2.346,0,3.63-0.727,5.026-2.123l-1.368-1.201c-1.089,1.09-2.011,1.564-3.602,1.564c-2.625,0-4.049-1.731-4.049-4.747H219.651z
		 M217.64,260.57h-7.26c0.056-1.117,0.112-1.535,0.419-2.29c0.53-1.257,1.759-2.065,3.211-2.065c1.452,0,2.681,0.809,3.211,2.065
		C217.528,259.035,217.584,259.453,217.64,260.57"/>
	<path clip-path="url(#XMLID_6_)" fill-rule="evenodd" clip-rule="evenodd" fill="#C6C7C8" d="M251.531,262.665h-2.123
		c-0.53,2.429-2.289,4.021-4.774,4.021c-1.312,0-2.569-0.502-3.435-1.396c-1.256-1.284-1.396-2.652-1.396-6.813
		c0-4.161,0.14-5.529,1.396-6.814c0.866-0.894,2.123-1.396,3.435-1.396c2.485,0,4.188,1.591,4.719,4.021h2.178
		c-0.67-3.741-3.323-5.919-6.897-5.919c-1.955,0-3.742,0.726-5.082,2.066c-1.871,1.87-1.871,3.825-1.871,8.042
		c0,4.216,0,6.171,1.871,8.042c1.34,1.34,3.127,2.066,5.082,2.066C248.18,268.585,250.888,266.406,251.531,262.665"/>
	<path clip-path="url(#XMLID_6_)" fill-rule="evenodd" clip-rule="evenodd" fill="#C6C7C8" d="M266.023,261.548
		c0-2.122-0.28-4.05-1.676-5.474c-0.949-0.949-2.262-1.563-3.937-1.563c-1.675,0-2.988,0.614-3.938,1.563
		c-1.396,1.424-1.675,3.352-1.675,5.474s0.279,4.049,1.675,5.473c0.95,0.949,2.263,1.564,3.938,1.564
		c1.675,0,2.988-0.615,3.937-1.564C265.744,265.597,266.023,263.67,266.023,261.548 M264.013,261.548
		c0,1.536-0.084,3.238-1.089,4.244c-0.642,0.643-1.536,1.006-2.513,1.006c-0.978,0-1.843-0.363-2.485-1.006
		c-1.006-1.006-1.117-2.708-1.117-4.244s0.111-3.239,1.117-4.245c0.642-0.642,1.507-1.005,2.485-1.005
		c0.977,0,1.871,0.363,2.513,1.005C263.929,258.309,264.013,260.012,264.013,261.548"/>
	<path clip-path="url(#XMLID_6_)" fill-rule="evenodd" clip-rule="evenodd" fill="#C6C7C8" d="M281.456,268.417v-8.796
		c0-1.592-0.447-2.877-1.424-3.826c-0.838-0.838-2.039-1.284-3.519-1.284c-1.536,0-2.876,0.559-3.853,1.675v-1.508h-2.011v13.739
		h2.011v-8.461c0-2.401,1.34-3.658,3.406-3.658c2.067,0,3.379,1.229,3.379,3.658v8.461H281.456z"/>
	<path clip-path="url(#XMLID_6_)" fill-rule="evenodd" clip-rule="evenodd" fill="#C6C7C8" d="M295.688,264.396
		c0-2.569-1.648-3.491-4.049-3.715l-2.206-0.195c-1.731-0.14-2.402-0.838-2.402-2.01c0-1.396,1.062-2.262,3.072-2.262
		c1.424,0,2.681,0.334,3.658,1.088l1.313-1.313c-1.228-1.005-2.987-1.479-4.942-1.479c-2.932,0-5.054,1.508-5.054,4.021
		c0,2.263,1.424,3.463,4.105,3.687l2.261,0.195c1.592,0.14,2.29,0.81,2.29,2.011c0,1.62-1.396,2.429-3.658,2.429
		c-1.703,0-3.183-0.446-4.272-1.592l-1.341,1.341c1.508,1.452,3.323,1.983,5.641,1.983
		C293.426,268.585,295.688,267.048,295.688,264.396"/>
	<path clip-path="url(#XMLID_6_)" fill-rule="evenodd" clip-rule="evenodd" fill="#C6C7C8" d="M310.403,268.417v-13.739h-2.01v8.462
		c0,2.4-1.368,3.658-3.435,3.658s-3.352-1.229-3.352-3.658v-8.462h-2.01v8.769c0,1.592,0.418,2.904,1.396,3.854
		c0.837,0.838,2.065,1.285,3.546,1.285c1.536,0,2.903-0.587,3.882-1.704v1.536H310.403z"/>
	<path clip-path="url(#XMLID_6_)" fill-rule="evenodd" clip-rule="evenodd" fill="#C6C7C8" d="M319.749,268.417v-1.731h-1.089
		c-1.396,0-1.844-0.67-1.844-2.011v-16.14h-2.01v16.224c0,2.094,1.088,3.658,3.49,3.658H319.749z"/>
	<path clip-path="url(#XMLID_6_)" fill-rule="evenodd" clip-rule="evenodd" fill="#C6C7C8" d="M328.285,268.417v-1.731h-1.062
		c-1.284,0-1.871-0.754-1.871-2.011v-8.377h2.933v-1.536h-2.933v-4.3h-2.011v4.3h-1.731v1.536h1.731v8.434
		c0,2.038,1.173,3.686,3.519,3.686H328.285z"/>
	<path clip-path="url(#XMLID_6_)" fill-rule="evenodd" clip-rule="evenodd" fill="#C6C7C8" d="M334.325,254.678h-2.011v13.739h2.011
		V254.678z M334.465,248.507h-2.262v2.262h2.262V248.507z"/>
	<path clip-path="url(#XMLID_6_)" fill-rule="evenodd" clip-rule="evenodd" fill="#C6C7C8" d="M350.103,268.417v-8.796
		c0-1.592-0.446-2.877-1.425-3.826c-0.837-0.838-2.038-1.284-3.518-1.284c-1.537,0-2.877,0.559-3.854,1.675v-1.508h-2.011v13.739
		h2.011v-8.461c0-2.401,1.341-3.658,3.406-3.658c2.066,0,3.379,1.229,3.379,3.658v8.461H350.103z"/>
	<path clip-path="url(#XMLID_6_)" fill-rule="evenodd" clip-rule="evenodd" fill="#C6C7C8" d="M364.558,268.835v-14.157h-1.982v1.62
		c-1.117-1.452-2.346-1.787-3.854-1.787c-1.396,0-2.625,0.475-3.351,1.2c-1.369,1.369-1.676,3.491-1.676,5.725
		c0,2.234,0.307,4.355,1.676,5.725c0.726,0.726,1.927,1.229,3.323,1.229c1.479,0,2.735-0.362,3.854-1.787v2.15
		c0,2.346-1.118,4.217-3.771,4.217c-1.592,0-2.289-0.475-3.295-1.369l-1.313,1.285c1.452,1.313,2.598,1.843,4.664,1.843
		C362.436,274.728,364.558,272.242,364.558,268.835 M362.548,261.436c0,2.569-0.42,5.138-3.407,5.138
		c-2.988,0-3.435-2.568-3.435-5.138c0-2.568,0.446-5.138,3.435-5.138C362.128,256.298,362.548,258.867,362.548,261.436"/>
	<path clip-path="url(#XMLID_6_)" fill-rule="evenodd" clip-rule="evenodd" fill="#C6C7C8" d="M396.828,262.665h-2.122
		c-0.53,2.429-2.29,4.021-4.774,4.021c-1.313,0-2.569-0.502-3.436-1.396c-1.256-1.284-1.396-2.652-1.396-6.813
		c0-4.161,0.141-5.529,1.396-6.814c0.866-0.894,2.123-1.396,3.436-1.396c2.484,0,4.188,1.591,4.719,4.021h2.178
		c-0.67-3.741-3.322-5.919-6.896-5.919c-1.955,0-3.742,0.726-5.083,2.066c-1.87,1.87-1.87,3.825-1.87,8.042
		c0,4.216,0,6.171,1.87,8.042c1.341,1.34,3.128,2.066,5.083,2.066C393.478,268.585,396.187,266.406,396.828,262.665"/>
	<path clip-path="url(#XMLID_6_)" fill-rule="evenodd" clip-rule="evenodd" fill="#C6C7C8" d="M411.321,261.548
		c0-2.122-0.28-4.05-1.675-5.474c-0.95-0.949-2.263-1.563-3.938-1.563c-1.676,0-2.988,0.614-3.938,1.563
		c-1.397,1.424-1.676,3.352-1.676,5.474s0.278,4.049,1.676,5.473c0.949,0.949,2.262,1.564,3.938,1.564
		c1.675,0,2.987-0.615,3.938-1.564C411.041,265.597,411.321,263.67,411.321,261.548 M409.311,261.548
		c0,1.536-0.083,3.238-1.089,4.244c-0.642,0.643-1.536,1.006-2.513,1.006c-0.978,0-1.844-0.363-2.486-1.006
		c-1.004-1.006-1.116-2.708-1.116-4.244s0.112-3.239,1.116-4.245c0.643-0.642,1.509-1.005,2.486-1.005
		c0.977,0,1.871,0.363,2.513,1.005C409.228,258.309,409.311,260.012,409.311,261.548"/>
	<path clip-path="url(#XMLID_6_)" fill-rule="evenodd" clip-rule="evenodd" fill="#C6C7C8" d="M425.748,268.417v-9.327
		c0-2.987-1.814-4.579-5.5-4.579c-2.234,0-3.631,0.446-4.859,2.038l1.369,1.257c0.809-1.145,1.702-1.563,3.462-1.563
		c2.513,0,3.519,1.005,3.519,3.016v1.313h-4.133c-3.072,0-4.747,1.563-4.747,3.965c0,1.089,0.362,2.122,1.033,2.792
		c0.866,0.895,1.982,1.258,3.881,1.258c1.843,0,2.849-0.363,3.966-1.48v1.313H425.748z M423.738,263.559
		c0,1.145-0.224,1.927-0.698,2.373c-0.866,0.838-1.899,0.921-3.071,0.921c-2.179,0-3.155-0.754-3.155-2.346
		c0-1.591,1.005-2.429,3.071-2.429h3.854V263.559z"/>
	<path clip-path="url(#XMLID_6_)" fill-rule="evenodd" clip-rule="evenodd" fill="#C6C7C8" d="M440.93,266.546l-1.368-1.313
		c-1.033,1.146-1.843,1.565-3.155,1.565c-1.341,0-2.457-0.531-3.184-1.565c-0.642-0.893-0.893-1.953-0.893-3.685
		s0.251-2.792,0.893-3.687c0.727-1.033,1.843-1.563,3.184-1.563c1.313,0,2.122,0.392,3.155,1.536l1.368-1.285
		c-1.424-1.535-2.625-2.038-4.523-2.038c-3.463,0-6.088,2.346-6.088,7.037s2.625,7.037,6.088,7.037
		C438.305,268.585,439.506,268.081,440.93,266.546"/>
	<path clip-path="url(#XMLID_6_)" fill-rule="evenodd" clip-rule="evenodd" fill="#C6C7C8" d="M455.841,268.417v-8.824
		c0-3.1-1.843-5.082-4.942-5.082c-1.535,0-2.848,0.53-3.854,1.675v-7.65h-2.01v19.882h2.01v-8.489c0-2.373,1.369-3.63,3.436-3.63
		s3.351,1.229,3.351,3.63v8.489H455.841z"/>
	<path clip-path="url(#XMLID_6_)" fill-rule="evenodd" clip-rule="evenodd" fill="#C6C7C8" d="M462.171,254.678h-2.011v13.739h2.011
		V254.678z M462.311,248.507h-2.262v2.262h2.262V248.507z"/>
	<path clip-path="url(#XMLID_6_)" fill-rule="evenodd" clip-rule="evenodd" fill="#C6C7C8" d="M477.948,268.417v-8.796
		c0-1.592-0.447-2.877-1.425-3.826c-0.838-0.838-2.038-1.284-3.518-1.284c-1.537,0-2.877,0.559-3.854,1.675v-1.508h-2.011v13.739
		h2.011v-8.461c0-2.401,1.34-3.658,3.406-3.658s3.379,1.229,3.379,3.658v8.461H477.948z"/>
	<path clip-path="url(#XMLID_6_)" fill-rule="evenodd" clip-rule="evenodd" fill="#C6C7C8" d="M492.403,268.835v-14.157h-1.983v1.62
		c-1.116-1.452-2.345-1.787-3.853-1.787c-1.396,0-2.625,0.475-3.352,1.2c-1.368,1.369-1.675,3.491-1.675,5.725
		c0,2.234,0.307,4.355,1.675,5.725c0.727,0.726,1.928,1.229,3.323,1.229c1.479,0,2.736-0.362,3.854-1.787v2.15
		c0,2.346-1.117,4.217-3.77,4.217c-1.592,0-2.289-0.475-3.295-1.369l-1.313,1.285c1.452,1.313,2.597,1.843,4.663,1.843
		C490.281,274.728,492.403,272.242,492.403,268.835 M490.393,261.436c0,2.569-0.419,5.138-3.407,5.138
		c-2.987,0-3.434-2.568-3.434-5.138c0-2.568,0.446-5.138,3.434-5.138C489.974,256.298,490.393,258.867,490.393,261.436"/>
	<path clip-path="url(#XMLID_6_)" fill-rule="evenodd" clip-rule="evenodd" fill="#00457C" d="M113.475,217.097
		c0,2.344,0.313,2.656,2.657,2.656h14.064c2.187,0,2.5-0.313,2.5-2.656v-69.696c0-2.344-0.313-2.657-2.5-2.657h-28.285
		c-2.188,0-2.5,0.313-2.5,2.657v8.751c0,2.344,0.312,2.657,2.5,2.657h11.564V217.097z M122.695,110.209
		c-6.876,0-12.345,5.469-12.345,12.188c0,6.876,5.469,12.346,12.189,12.346c6.876,0,12.345-5.47,12.345-12.346
		C134.884,115.678,129.416,110.209,122.695,110.209"/>
	<path clip-path="url(#XMLID_6_)" fill-rule="evenodd" clip-rule="evenodd" fill="#00457C" d="M147.975,144.744
		c-2.344,0-2.657,0.156-2.657,2.5v8.908c0,2.188,0.313,2.5,2.657,2.5h10.314V198.5c0,7.345,0.469,10.158,2.187,13.909
		c2.97,6.406,9.533,10.001,18.44,10.001c5.782,0,12.502-1.407,17.815-3.595c1.562-0.625,2.188-1.25,2.188-2.5
		c0-0.313,0-0.469-0.156-0.781l-0.157-0.781l-2.5-10.627c-0.313-1.093-0.781-1.563-1.563-1.563c-0.313,0-0.781,0-1.25,0.313
		c-5.626,2.188-7.032,2.5-10.001,2.5c-4.688,0-5.626-1.718-5.626-9.688v-37.036h15.002c1.719,0,2.344-0.312,2.657-2.188l2.031-8.907
		c0-0.313,0.156-0.469,0.156-0.625v-0.625c0-1.25-0.469-1.563-2.5-1.563h-17.346v-21.409c0-1.875-0.469-2.656-1.563-2.656
		c-0.156,0-0.312,0.156-0.781,0.156h-0.469l-14.064,2.032c-2.188,0.312-2.5,0.625-2.5,2.656v19.221H147.975z"/>
	<path clip-path="url(#XMLID_6_)" fill-rule="evenodd" clip-rule="evenodd" fill="#C6C7C8" d="M265.4,187.406
		c2.813,0,3.438-0.781,3.438-3.907c0-27.503-10.001-41.411-30.16-41.411c-20.002,0-33.129,16.252-33.129,40.786
		c0,25.628,11.876,39.537,33.91,39.537c6.719,0,12.658-1.095,18.909-3.438c6.25-2.344,8.438-3.75,8.438-5.625
		c0-0.47-0.156-0.782-0.469-1.72l-3.907-8.906c-0.312-0.938-0.937-1.407-1.718-1.407c-0.469,0-1.094,0.156-1.875,0.625
		c-5.939,3.125-11.721,4.688-17.503,4.688c-11.095,0-16.408-6.251-16.72-19.221H265.4z M237.74,155.996
		c7.657,0,10.626,4.688,10.939,17.346h-23.753C226.333,160.84,229.771,155.996,237.74,155.996"/>
	<path clip-path="url(#XMLID_6_)" fill-rule="evenodd" clip-rule="evenodd" fill="#C6C7C8" d="M316.969,157.714
		c5.313,0,6.876,2.813,6.876,12.814v46.568c0,2.344,0.313,2.656,2.657,2.656h13.908c2.188,0,2.5-0.313,2.5-2.656v-52.975
		c5.469-5,8.907-6.876,13.126-6.876c5.001,0,6.876,3.126,6.876,11.877v47.974c0,2.344,0.313,2.656,2.5,2.656h13.908
		c2.188,0,2.657-0.313,2.657-2.656v-49.849c0-9.533-0.625-13.127-2.813-17.503c-2.344-4.844-7.657-7.656-14.533-7.656
		c-8.438,0-14.689,2.812-23.283,10.626c-3.438-7.189-8.752-10.626-16.721-10.626c-8.283,0-14.221,2.968-22.504,10.626
		c-1.406-6.564-3.281-10.783-4.843-10.783c-0.313,0-0.938,0-1.563,0.313l-12.345,4.063c-1.251,0.469-1.719,0.937-1.719,1.719
		c0,0.468,0.156,1.093,0.468,1.718c2.345,5.782,2.813,8.595,2.813,16.409v50.943c0,2.344,0.313,2.656,2.501,2.656h13.907
		c2.345,0,2.657-0.313,2.657-2.656v-52.975C309.156,159.589,313.063,157.714,316.969,157.714"/>
	<path clip-path="url(#XMLID_6_)" fill-rule="evenodd" clip-rule="evenodd" fill="#C6C7C8" d="M419.657,217.097
		c0,2.344-0.313,2.656-2.657,2.656h-14.063c-2.187,0-2.5-0.313-2.5-2.656v-69.696c0-2.344,0.313-2.657,2.5-2.657h28.285
		c2.188,0,2.5,0.313,2.5,2.657v8.751c0,2.344-0.313,2.657-2.5,2.657h-11.564V217.097z M410.438,110.209
		c6.876,0,12.345,5.469,12.345,12.188c0,6.876-5.469,12.346-12.188,12.346c-6.875,0-12.346-5.47-12.346-12.346
		C398.248,115.678,403.719,110.209,410.438,110.209"/>
	<path clip-path="url(#XMLID_6_)" fill-rule="evenodd" clip-rule="evenodd" fill="#C6C7C8" d="M441.688,213.034
		c0,0.78,0.625,1.406,1.718,2.188c7.971,4.375,18.284,7.188,27.348,7.188c15.471,0,25.94-10.001,25.94-24.535
		c0-5.313-1.719-10.157-4.688-13.907c-3.438-4.063-6.563-5.939-19.221-10.783c-8.438-3.282-10.157-4.688-10.157-8.907
		c0-4.845,3.595-7.658,9.845-7.658c4.063,0,9.533,1.407,15.314,3.907c0.469,0.156,0.938,0.313,1.25,0.313
		c0.625,0,0.938-0.313,1.406-1.407l3.907-8.594c0.313-0.782,0.469-1.251,0.469-1.563c0-0.782-0.469-1.25-1.25-1.719
		c-5.313-3.126-14.846-5.469-22.034-5.469c-15.939,0-27.19,10.313-27.19,24.69c0,5.313,1.719,10.157,4.845,13.595
		c2.969,3.595,6.25,5.313,17.188,9.533c9.845,3.75,11.721,5.313,11.721,9.689c0,4.688-3.595,7.813-8.907,7.813
		c-5.782,0-12.502-2.032-20.628-6.407c-0.469-0.313-1.094-0.469-1.406-0.469c-0.625,0-1.25,0.469-1.563,1.406l-3.438,9.221
		C441.844,212.252,441.688,212.564,441.688,213.034"/>
</g>
</svg>
