<?xml version="1.0" encoding="utf-8"?>
<!-- Generator: Adobe Illustrator 16.0.0, SVG Export Plug-In . SVG Version: 6.00 Build 0)  -->
<!DOCTYPE svg PUBLIC "-//W3C//DTD SVG 1.1//EN" "http://www.w3.org/Graphics/SVG/1.1/DTD/svg11.dtd">
<svg version="1.1" id="Layer_1" xmlns="http://www.w3.org/2000/svg" xmlns:xlink="http://www.w3.org/1999/xlink" x="0px" y="0px"
	 viewBox="0 0 430 105" enable-background="new 0 0 430 105" xml:space="preserve">
<radialGradient id="SVGID_1_" cx="145.8418" cy="29.3145" r="30.7576" gradientTransform="matrix(0.9236 0.3868 -0.3833 0.9316 -89.2539 -49.6113)" gradientUnits="userSpaceOnUse">
	<stop  offset="0.6593" style="stop-color:#FFFFFF"/>
	<stop  offset="0.7547" style="stop-color:#FCFCFC"/>
	<stop  offset="0.8182" style="stop-color:#F3F4F4"/>
	<stop  offset="0.8724" style="stop-color:#E4E5E6"/>
	<stop  offset="0.9214" style="stop-color:#CFD0D2"/>
	<stop  offset="0.9664" style="stop-color:#B4B5B8"/>
	<stop  offset="0.989" style="stop-color:#A3A5A8"/>
</radialGradient>
<path fill="url(#SVGID_1_)" d="M64.908,33.782c0.185,17.157-13.414,31.215-30.372,31.396C17.586,65.354,3.693,51.591,3.51,34.436
	C3.33,17.28,16.925,3.228,33.883,3.047C50.833,2.865,64.726,16.629,64.908,33.782z"/>
<g>
	<path fill="#7E8083" d="M76.598,89.291l1.685,11.052h0.039l2.117-11.052h1.254l2.194,11.052h0.041l1.566-11.052h1.411
		l-2.271,14.147h-1.294L81.103,92.33h-0.038l-2.235,11.108h-1.293l-2.352-14.147H76.598z"/>
	<path fill="#7E8083" d="M95.958,89.291v1.292H91.02v4.822h3.646v1.293H91.02v5.446h5.174v1.294h-6.701V89.291H95.958z"/>
	<path fill="#7E8083" d="M106.188,89.291V96.5h0.039l3.958-7.209h1.647l-2.745,4.938l3.253,9.209h-1.645l-2.627-7.644h-0.038
		l-1.842,3.294v4.35h-1.529V89.291H106.188z"/>
	<path fill="#7E8083" d="M116.907,89.291l3.646,10.424h0.038V89.291h1.53v14.147h-1.647l-4.39-12.308h-0.039v12.308h-1.528V89.291
		H116.907z"/>
	<path fill="#7E8083" d="M129.273,103.636c-2.392,0-3.997-2-3.997-7.271c0-5.272,1.604-7.271,3.997-7.271
		c2.391,0,3.996,1.998,3.996,7.271C133.27,101.636,131.665,103.636,129.273,103.636z M129.273,90.387
		c-1.373,0-2.47,1.176-2.47,5.978c0,4.804,1.097,5.977,2.47,5.977c1.371,0,2.47-1.173,2.47-5.977
		C131.743,91.563,130.645,90.387,129.273,90.387z"/>
	<path fill="#7E8083" d="M136.858,89.291l1.684,11.052h0.039l2.116-11.052h1.255l2.193,11.052h0.041l1.567-11.052h1.411
		l-2.273,14.147h-1.293l-2.235-11.108h-0.039l-2.232,11.108h-1.294l-2.354-14.147H136.858z"/>
	<path fill="#7E8083" d="M156.789,89.291v6.114h4.156v-6.114h1.526v14.147h-1.526v-6.74h-4.156v6.74h-1.53V89.291H156.789z"/>
	<path fill="#7E8083" d="M169.818,103.636c-2.392,0-3.996-2-3.996-7.271c0-5.272,1.604-7.271,3.996-7.271
		c2.393,0,3.997,1.998,3.997,7.271C173.815,101.636,172.211,103.636,169.818,103.636z M169.818,90.387
		c-1.371,0-2.469,1.176-2.469,5.978c0,4.804,1.098,5.977,2.469,5.977c1.372,0,2.469-1.173,2.469-5.977
		C172.287,91.563,171.19,90.387,169.818,90.387z"/>
	<path fill="#7E8083" d="M177.402,89.291l1.686,11.052h0.042l2.114-11.052h1.255l2.195,11.052h0.037l1.571-11.052h1.409
		l-2.273,14.147h-1.291l-2.235-11.108h-0.042l-2.234,11.108h-1.292l-2.352-14.147H177.402z"/>
</g>
<g>
	<path fill="#7E8083" d="M75.25,80.911V44.575h7.598l9.665,21.539h0.1V44.575h6.341v36.336h-6.643l-10.619-23.45h-0.101v23.45H75.25
		z"/>
	<path fill="#7E8083" d="M103.539,56.251c0-8.958,4.729-12.179,11.475-12.179c6.744,0,11.474,3.221,11.474,12.179v12.982
		c0,8.963-4.73,12.183-11.474,12.183c-6.745,0-11.475-3.22-11.475-12.183V56.251z M110.483,70.142c0,4.025,1.761,5.134,4.53,5.134
		c2.768,0,4.529-1.108,4.529-5.134V55.347c0-4.028-1.761-5.135-4.529-5.135c-2.77,0-4.53,1.106-4.53,5.135V70.142z"/>
	<path fill="#7E8083" d="M146.019,54.69c-1.16-3.422-2.669-4.882-5.083-4.882c-2.468,0-3.825,1.51-3.825,3.978
		c0,5.483,15.5,5.887,15.5,17.263c0,6.237-4.276,10.367-11.576,10.367c-5.634,0-10.014-3.07-11.876-10.218l6.845-1.457
		c0.803,4.377,3.32,5.938,5.385,5.938c2.414,0,4.276-1.611,4.276-4.33c0-6.844-15.5-6.944-15.5-17.111
		c0-6.24,3.724-10.165,10.92-10.165c6.192,0,9.964,3.675,11.172,8.806L146.019,54.69z"/>
	<path fill="#7E8083" d="M157.193,80.911V44.575h19.025v6.141H164.14v8.352h9.21v6.141h-9.21v9.564h12.58v6.139H157.193z"/>
	<path fill="#7E8083" d="M197.209,80.911l-6.042-14.797h-3.32v14.797h-6.944V44.575h10.065c8.354,0,12.332,4.026,12.332,10.869
		c0,4.53-1.613,7.803-5.486,9.262l6.842,16.205H197.209z M187.847,60.378h3.573c3.07,0,4.934-1.51,4.934-5.031
		c0-3.524-1.864-5.034-4.934-5.034h-3.573V60.378z"/>
	<path fill="#7E8083" d="M226.957,44.575v3.322h-12.684v12.38h9.36v3.323h-9.36v13.992h13.288v3.318h-17.213V44.575H226.957z"/>
	<path fill="#7E8083" d="M236.871,44.575l9.363,26.773h0.1V44.575h3.926v36.336h-4.227l-11.275-31.605h-0.1v31.605h-3.926V44.575
		H236.871z"/>
	<path fill="#7E8083" d="M270.039,55.749c-0.299-4.732-1.711-8.355-5.686-8.355c-4.379,0-6.492,3.925-6.492,15.349
		c0,11.425,2.113,15.352,6.492,15.352c3.676,0,5.686-2.011,5.686-5.737v-5.133h-4.932v-3.322h8.859v17.01h-2.518l-0.504-2.715
		c-1.51,2.01-3.621,3.22-6.592,3.22c-6.393,0-10.418-4.933-10.418-18.674c0-13.739,4.025-18.67,10.418-18.67
		c6.693,0,9.109,5.837,9.613,11.677H270.039z"/>
	<path fill="#7E8083" d="M282.877,44.575v36.336h-3.926V44.575H282.877z"/>
	<path fill="#7E8083" d="M294.002,44.575l9.359,26.773h0.102V44.575h3.926v36.336h-4.229l-11.273-31.605h-0.1v31.605h-3.928V44.575
		H294.002z"/>
	<path fill="#7E8083" d="M328.68,44.575v3.322h-12.682v12.38h9.359v3.323h-9.359v13.992h13.285v3.318H312.07V44.575H328.68z"/>
	<path fill="#7E8083" d="M349.568,44.575v3.322h-12.682v12.38h9.359v3.323h-9.359v13.992h13.285v3.318h-17.211V44.575H349.568z"/>
	<path fill="#7E8083" d="M353.846,44.575h8.758c5.838,0,9.965,3.422,9.965,9.412c0,4.075-1.813,7.5-5.838,8.908l6.141,18.016h-4.125
		l-5.84-17.213l-5.133,0.203v17.01h-3.928V44.575z M357.773,60.479h3.422c5.637,0,7.447-2.215,7.447-6.293
		c0-4.076-1.811-6.289-7.447-6.289h-3.422V60.479z"/>
	<path fill="#7E8083" d="M381.783,44.575v36.336h-3.928V44.575H381.783z"/>
	<path fill="#7E8083" d="M392.902,44.575l9.365,26.773h0.1V44.575h3.926v36.336h-4.229l-11.273-31.605h-0.1v31.605h-3.928V44.575
		H392.902z"/>
	<path fill="#7E8083" d="M426.076,55.749c-0.305-4.732-1.713-8.355-5.688-8.355c-4.379,0-6.494,3.925-6.494,15.349
		c0,11.425,2.115,15.352,6.494,15.352c3.672,0,5.688-2.011,5.688-5.737v-5.133h-4.936v-3.322H430v17.01h-2.518l-0.502-2.715
		c-1.51,2.01-3.621,3.22-6.592,3.22c-6.391,0-10.416-4.933-10.416-18.674c0-13.739,4.025-18.67,10.416-18.67
		c6.689,0,9.109,5.837,9.611,11.677H426.076z"/>
</g>
<path fill="#7E8083" d="M51.826,61.211c-0.109-0.108-0.876-0.86-1.004-0.968c5.168-22.437,3.344-40.438-0.919-52.824l0.49-1.326
	C57.158,25.337,56.758,39.563,51.826,61.211z"/>
<g>
	<radialGradient id="SVGID_2_" cx="21.3706" cy="18.0835" r="43.3674" gradientUnits="userSpaceOnUse">
		<stop  offset="0" style="stop-color:#FFFFFF"/>
		<stop  offset="0.2519" style="stop-color:#E3E3E4"/>
		<stop  offset="0.7936" style="stop-color:#9B9D9F"/>
		<stop  offset="1" style="stop-color:#7E8083"/>
	</radialGradient>
	<path fill="url(#SVGID_2_)" d="M63.87,21.371c-2.852-6.669-7.675-11.893-13.493-15.275c7.566,20.83,4.432,42.68,1.433,55.11
		C64.747,52.821,70.159,36.071,63.87,21.371z M21.486,4.299C5.103,11.307-2.48,30.307,4.545,46.741
		c6.034,14.105,20.873,21.727,35.315,19.175c8.605-30.663,2.185-53.546-2.11-64.001C32.384,1.305,26.799,2.026,21.486,4.299z"/>
</g>
<g>
	<g>
		
			<radialGradient id="SVGID_3_" cx="56.7344" cy="28.6118" r="18.5299" gradientTransform="matrix(1.0123 -0.0223 0.0225 1.0046 -9.6631 -5.6475)" gradientUnits="userSpaceOnUse">
			<stop  offset="0" style="stop-color:#FFE800"/>
			<stop  offset="0.23" style="stop-color:#FFD900"/>
			<stop  offset="0.7028" style="stop-color:#FCB220"/>
			<stop  offset="1" style="stop-color:#F89728"/>
		</radialGradient>
		<path fill="url(#SVGID_3_)" d="M50.327,56.826c0.131-0.708,0.254-1.415,0.367-2.128c0.293-0.492,0.411-0.959,0.695-1.451
			c-0.005-0.375,0.161-0.771,0.152-1.146c0.099-0.339,0.196-0.679,0.292-1.019c0.264-1.811,0.469-3.628,0.616-5.452
			c0.082,0.007,0.517-6.967,0.432-7.546c0.045-0.571-0.154-5.04-0.221-5.614c0.054-0.578-0.151-7.336-0.263-8.246
			c0.051-0.921-1.027-7.049-1.475-8.499c-0.344-1.467-1.374-4.92-1.577-5.475c-0.104-0.573-1.82-6.536-1.888-6.518
			c-0.263-0.358-1.068-0.793-1.338-1.151c-0.765-0.203-1.529-0.405-2.298-0.607c-0.915-0.451-1.834-0.902-2.757-1.353
			c-0.321,0.042-0.642,0.085-0.961,0.127c-0.422,0.479,0.042,2.335-0.387,2.817c0.253,0.661,0-0.096,0.286,0.715
			c0.028,0.257,0.231,0.619,0.257,0.875c0.234,0.693,0.372,1.234,0.587,1.932c0.39,0.658,0.306,1.446,0.68,2.106
			c2.977,9.595,4.231,19.586,3.763,29.52c0.05,3.09-0.068,6.177-0.353,9.241c-0.508,3.637-1.249,7.25-2.225,10.814
			c0,0,0.271,1.101,0.625-0.236c0.348-1.338,0.61-2.013,0.613-2.011c0.162,0.105,0.326,0.214,0.489,0.319
			c-0.372,1.086-0.766,2.168-1.181,3.24c0.01,0.368,0.017,0.737,0.022,1.102c0.076,0.255,0.15,0.506,0.224,0.761
			c-0.086,0.403-0.176,0.808-0.268,1.21c0.168,0.176,0.338,0.356,0.505,0.535c0.031,0.251,0.059,0.508,0.084,0.76
			c0,0,0.308,0.102,0.421,0.426c0.145,0.329-1.179,4.125-1.206,4.117c0.156,0.174,0.313,0.346,0.467,0.518
			c0,0,1.391-0.344,1.461-1.093c0.08-0.751,0.759-2.599,0.755-2.599c0.167-0.146,0.331-0.295,0.498-0.442
			c0.153-0.222,0.307-0.442,0.458-0.663c0.266-0.006,0.53-0.01,0.796-0.018c0,0.003,0.342-0.332,0.524-0.879
			c0.203-0.545,1.133-3.637,1.116-3.642c0.235-0.3,0.469-0.597,0.7-0.896C49.999,58.463,50.169,57.645,50.327,56.826z
			 M46.554,37.424c-0.073-0.609-0.152-1.218-0.238-1.827c-0.054-1.068-0.129-2.14-0.223-3.209c-0.128-0.99-0.274-1.982-0.436-2.973
			c0.041-1.262,0.053-2.523,0.038-3.782c0.169-0.423,0.337-0.846,0.501-1.269c0.119,1.331,0.209,2.666,0.268,4.001
			c0.009-0.001,0.106,2.407,0.012,2.869c-0.041,0.458,0.788,5.03,0.752,5.03C47.007,36.651,46.782,37.036,46.554,37.424z"/>
	</g>
</g>
</svg>
