<?xml version="1.0" encoding="UTF-8" standalone="no"?>
<!DOCTYPE svg PUBLIC "-//W3C//DTD SVG 1.1//EN" "http://www.w3.org/Graphics/SVG/1.1/DTD/svg11.dtd">
<svg width="100%" height="100%" viewBox="0 0 800 600" version="1.1" xmlns="http://www.w3.org/2000/svg" xmlns:xlink="http://www.w3.org/1999/xlink" xml:space="preserve" xmlns:serif="http://www.serif.com/" style="fill-rule:evenodd;clip-rule:evenodd;stroke-linejoin:round;stroke-miterlimit:1.41421;">
    <g transform="matrix(1.18899,0,0,1.46306,-151.097,-285.161)">
        <path d="M274.441,275.696C274.441,275.854 274.441,276.091 274.441,276.406C274.283,276.722 274.204,276.959 274.204,277.117L273.256,279.486L272.546,283.04L267.807,289.437L266.149,292.991L261.174,295.123L259.515,297.255L252.882,299.15L248.617,301.519L246.485,301.519L245.064,303.652L238.904,303.652C237.008,306.021 234.086,307.205 230.138,307.205C229.506,306.574 229.111,306.258 228.953,306.258C228.637,306.258 227.611,306.811 225.873,307.916L221.846,307.442L220.187,308.153L215.686,307.679L216.871,308.39C213.08,309.338 210.316,309.812 208.579,309.812C207.789,309.812 207.236,309.733 206.92,309.575C202.34,310.996 198.628,311.707 195.785,311.707C195.627,311.707 195.232,311.628 194.601,311.47C194.127,311.47 193.732,311.47 193.416,311.47L189.862,312.418L186.782,311.233L185.124,311.944L182.044,315.024L177.78,314.076C177.306,313.918 176.437,313.602 175.173,313.128L174.7,313.365L171.857,314.076L171.383,318.814L169.961,322.605L162.617,331.134L159.537,328.291L154.562,328.291L155.746,319.999L155.746,317.156L154.088,315.971C153.456,316.287 152.351,316.919 150.771,317.867L144.374,317.867L139.873,314.787L137.978,309.338L141.295,306.258C143.98,303.731 147.691,301.914 152.43,300.809L152.193,300.335C151.877,299.387 151.719,298.598 151.719,297.966C151.719,296.86 152.035,295.755 152.667,294.649L151.956,283.751L153.14,280.908L153.14,275.933L154.325,273.327L151.482,268.588L154.799,261.955L153.614,247.74L154.088,242.291L154.088,238.737L151.956,233.525L151.956,226.18L150.534,222.864L149.113,222.153L143.901,224.522L134.898,225.233C132.055,225.233 130.002,222.548 128.738,217.178L127.08,209.833C131.028,206.516 134.661,204.858 137.978,204.858L138.452,204.858C143.032,203.594 147.139,202.963 150.771,202.963C151.245,202.963 151.956,203.16 152.903,203.555C153.851,203.95 154.72,204.147 155.51,204.147C155.352,204.147 157.326,203.673 161.432,202.726L162.38,205.332L165.697,204.621L167.829,205.332L170.909,204.621L180.149,206.753L183.229,208.649L190.099,207.464L192.705,211.492L194.127,211.729L198.154,214.335L200.523,214.572L203.366,215.756L204.314,215.756C206.841,215.756 209.052,216.467 210.948,217.888C215.528,219.152 219.082,221.205 221.609,224.048C222.872,224.364 223.978,224.759 224.926,225.233C226.979,226.812 229.111,227.681 231.322,227.839L237.956,232.577L244.353,238.026L243.642,238.737L249.091,238.263L251.46,239.921L252.171,243.475C256.435,246.95 260.621,251.214 264.728,256.269C264.885,256.742 265.043,257.295 265.201,257.927L268.992,260.059L268.992,265.982C268.992,265.982 269.703,266.693 271.124,268.114C271.124,269.378 271.203,270.168 271.361,270.484L272.072,270.957C273.651,272.853 274.441,274.432 274.441,275.696ZM255.962,277.354L255.251,272.853L247.907,263.613L245.537,263.613L242.931,257.216C239.457,255.637 237.087,254.373 235.824,253.426L235.113,250.583L233.929,249.635L226.821,247.503L224.689,243.712L207.868,234.472C207.71,234.472 207.315,234.472 206.683,234.472C206.209,234.63 205.815,234.709 205.499,234.709C203.13,234.709 200.997,233.999 199.102,232.577L198.391,230.682L193.89,230.682L192.705,229.734L189.625,229.023C189.152,229.181 188.52,229.26 187.73,229.26C186.309,229.26 185.44,228.944 185.124,228.313L184.887,227.602L182.044,225.707L177.78,225.47C176.2,223.89 174.542,223.101 172.804,223.101L171.146,226.891L169.961,226.891L172.567,232.577L171.146,234.472C172.409,237.473 173.041,239.369 173.041,240.158L173.041,241.343C173.041,242.449 172.883,243.396 172.567,244.186L174.7,250.346L172.567,251.057L172.804,252.478L172.804,260.296C172.804,260.612 172.488,262.349 171.857,265.508L173.515,266.93L170.909,274.037L171.62,279.249L169.488,283.751L171.62,287.068L171.146,291.806L172.331,294.649L170.909,297.966L171.146,298.913L173.515,298.677L181.57,297.492C183.466,296.86 185.519,296.544 187.73,296.544C190.099,296.544 192.152,296.86 193.89,297.492C197.049,297.492 200.602,296.386 204.551,294.175C212.132,293.701 215.054,293.464 213.317,293.464C213.949,293.464 214.659,293.543 215.449,293.701C216.239,293.859 216.792,293.938 217.108,293.938C218.845,293.938 220.029,293.543 220.661,292.754L224.452,291.806C226.821,290.227 229.032,289.437 231.086,289.437C231.875,289.437 232.823,289.674 233.929,290.148C235.192,289.674 236.14,289.437 236.771,289.437L239.378,285.883L243.168,286.831L244.827,286.12L248.143,283.751L249.565,283.751L255.725,279.249L255.962,277.354Z" style="fill-rule:nonzero;"/>
        <path d="M424.172,245.607C424.172,249.24 423.066,252.557 420.855,255.558C416.59,257.295 413.037,258.164 410.194,258.164C409.562,258.164 408.693,258.006 407.587,257.69C406.482,257.374 405.771,257.216 405.455,257.216L399.295,260.296L393.609,259.822L390.293,261.007L388.634,260.533L384.37,262.902L380.816,261.718C376.552,261.718 373.156,261.797 370.629,261.955L371.576,261.718L367.312,263.139L366.601,263.139L364.943,264.561L361.626,263.613L359.731,265.271L354.518,263.139L351.439,265.035C347.648,263.929 345.437,263.376 344.805,263.376C343.068,263.376 340.935,263.929 338.408,265.035L327.747,265.982L326.799,265.508L322.772,266.219L322.535,267.167L324.904,279.013L323.956,280.197L324.904,282.566L324.667,285.646C325.457,288.015 326.01,290.384 326.326,292.754L329.168,295.597L328.695,297.018L333.433,302.941C338.329,306.416 342.041,308.153 344.568,308.153L345.042,308.153C345.358,308.153 345.753,308.074 346.226,307.916C346.7,307.916 347.016,307.916 347.174,307.916C347.806,307.916 348.675,308.153 349.78,308.627L351.912,308.39C353.966,307.916 356.888,307.363 360.678,306.732L363.284,305.31L363.758,304.362L365.417,304.126L367.312,302.941L368.496,303.652L372.287,302.467L375.367,300.572L376.552,298.913L380.579,295.834L383.659,295.36L389.345,291.095C393.294,290.463 396.137,287.305 397.874,281.619L398.585,281.856L398.822,281.145L401.902,280.908L406.403,277.117L408.061,276.88C408.535,276.722 409.088,276.643 409.72,276.643C412.721,276.643 414.537,279.565 415.169,285.409L404.744,297.729L402.138,298.44L401.191,299.861L396.689,304.599L390.293,308.39L385.081,313.365L383.422,313.128L381.527,315.024L370.866,319.051L366.601,323.79L363.521,322.605L362.337,324.737L360.204,324.026L359.02,325.211L351.202,323.79L343.146,327.106L335.091,324.5L324.904,319.762C316.217,315.655 309.505,304.284 304.766,285.646L305.003,283.04L302.871,277.591L305.003,275.222L303.582,268.588L303.345,266.456L299.317,261.955L299.317,259.112C299.317,254.531 300.581,251.372 303.108,249.635C303.582,248.371 304.45,247.187 305.714,246.081L305.24,245.371L305.24,238.737L304.529,235.42L307.609,227.839L308.32,224.048L305.951,224.285L305.003,224.285C302.792,224.285 300.897,223.535 299.317,222.034C297.738,220.534 296.948,218.757 296.948,216.704C296.948,214.335 298.448,211.65 301.449,208.649L303.108,206.99L305.24,206.043C307.767,204.937 309.741,204.384 311.163,204.384L312.347,204.384C312.663,204.226 313.453,204.147 314.717,204.147L315.664,204.147L318.033,200.357L328.695,201.067L329.405,201.778C330.827,201.462 332.959,201.304 335.802,201.304L340.54,200.12L341.725,200.12C343.778,199.488 345.753,198.224 347.648,196.329L351.202,198.224L352.386,198.224C353.176,198.224 354.084,198.303 355.111,198.461C356.137,198.619 356.809,198.698 357.125,198.698L380.816,196.566L383.185,197.514L386.502,196.803L388.397,194.908L393.136,197.514L394.794,196.329L400.006,198.461L403.56,197.514L405.455,198.698L413.037,197.987L414.695,199.172L418.486,199.883C422.118,200.515 423.935,202.252 423.935,205.095C423.935,206.99 423.263,208.649 421.921,210.07C420.578,211.492 419.196,212.202 417.775,212.202L416.827,212.202L414.221,213.624L409.483,212.202L407.351,212.439C406.877,212.597 406.245,212.676 405.455,212.676C403.876,212.676 402.454,212.36 401.191,211.729L400.48,210.781C398.901,211.097 397.874,211.255 397.4,211.255C396.768,211.255 395.979,211.097 395.031,210.781C393.452,211.887 390.53,212.834 386.265,213.624C384.054,213.624 381.606,213.545 378.921,213.387C378.921,213.229 379.237,212.676 379.868,211.729L373.709,213.387C373.551,213.229 373.393,213.15 373.235,213.15C372.129,213.15 370.076,214.414 367.075,216.941L363.995,215.519L362.574,216.467L356.888,214.808L353.571,216.467L348.832,216.467L341.725,217.888L335.802,220.494L334.144,219.547L331.064,221.679L327.984,221.679L327.273,222.864L327.984,225.707L323.956,230.445L325.852,230.682L325.852,237.315L328.458,240.158L326.326,242.054C324.746,244.739 323.956,246.555 323.956,247.503C323.956,248.135 324.43,248.608 325.378,248.924L328.221,247.977C329.011,247.819 329.8,247.74 330.59,247.74C332.959,248.056 334.697,248.371 335.802,248.687L340.067,247.029L343.857,248.214L345.989,247.74L348.596,247.977L352.386,247.266C353.65,247.582 354.676,247.74 355.466,247.74C356.098,247.74 357.361,247.187 359.257,246.081C360.52,246.713 362.337,247.029 364.706,247.029C365.022,247.029 365.574,246.95 366.364,246.792L368.733,246.792C368.417,246.792 368.102,246.713 367.786,246.555L368.496,246.555C369.444,246.555 372.287,246.792 377.025,247.266C377.499,247.108 379.947,246.95 384.37,246.792C386.897,246.634 388.476,246.555 389.108,246.555C391.477,246.555 393.767,246.634 395.979,246.792L398.111,246.555C400.322,245.292 402.375,244.66 404.271,244.66C405.692,244.66 407.114,244.897 408.535,245.371L411.852,244.66L414.695,245.844L424.172,243.475L424.172,245.607Z" style="fill-rule:nonzero;"/>
        <path d="M626.497,322.605C625.55,325.29 622.549,327.422 617.495,329.002L609.913,324.263L602.569,315.971L600.2,310.522L599.489,306.021L598.541,303.652C596.488,298.598 595.461,294.017 595.461,289.911C595.461,288.963 595.698,287.778 596.172,286.357L596.646,285.883L597.12,281.382L594.277,276.17L595.224,273.327L594.751,269.536L594.988,266.219C594.514,264.324 594.277,262.665 594.277,261.244L594.277,260.059C594.277,257.216 593.882,254.373 593.092,251.53L593.092,244.897L591.434,240.632L590.96,237.315L588.591,238.5L581.01,247.977L574.376,255.321L571.77,260.059L564.425,268.114L556.37,273.563L555.423,278.065L550.684,279.723L549.737,282.329L544.051,284.935L542.155,289.437L537.891,290.858L533.153,298.44L530.31,300.098C530.152,300.888 529.836,302.388 529.362,304.599C526.993,305.863 524.466,306.495 521.781,306.495L520.359,306.495L517.99,301.993L514.436,297.255L514.91,294.649L512.541,291.332L513.726,289.674L513.489,289.437L512.304,285.646L510.409,284.225C507.408,281.224 505.039,278.46 503.301,275.933L501.88,271.431L499.511,268.825L495.009,260.533L490.271,255.321L488.613,252.478L484.111,247.74L479.136,240.869C478.82,239.606 478.03,238.342 476.767,237.079C476.293,242.764 475.266,246.95 473.687,249.635L469.422,256.742L470.607,261.955L468.475,267.167L463.736,281.856L461.841,286.594L461.367,289.674L457.577,297.492L454.26,302.704L454.734,307.442C453.786,309.969 452.443,312.733 450.706,315.734L452.128,321.42C447.547,326.001 444.072,328.291 441.703,328.291C439.176,328.291 437.281,327.106 436.017,324.737C434.912,323.474 434.201,322.052 433.885,320.473L433.885,319.525C436.728,307.837 438.623,301.993 439.571,301.993C439.729,301.993 439.808,302.072 439.808,302.23L439.808,298.203C439.808,294.096 441.387,291.016 444.546,288.963L444.546,287.541L445.968,282.803L445.731,281.145C445.731,280.355 446.442,278.144 447.863,274.511L448.811,273.563L449.048,267.167L451.417,263.139L454.971,251.293L453.786,243.949L456.866,241.343L456.866,240.632L457.34,231.393L458.05,227.365C458.524,226.101 458.761,224.996 458.761,224.048L458.761,223.101L454.734,215.519L455.918,211.018L457.814,210.544L459.472,208.175L459.235,206.28L462.315,203.437L464.447,204.384L467.29,202.015L470.607,202.489L476.53,206.516L476.53,208.175L478.662,209.596L479.61,215.045L481.268,216.467L482.69,220.968L482.216,221.916L484.348,223.574C485.296,223.101 486.164,222.864 486.954,222.864C487.902,223.337 489.165,224.364 490.745,225.943L491.219,229.26L493.351,231.629L495.009,236.605L505.907,247.029L507.803,252.952L511.356,255.321L515.147,264.798L522.491,277.591C522.649,277.749 523.123,278.302 523.913,279.249L524.387,279.96L526.756,279.96L528.651,275.933L534.337,272.379C537.97,268.43 539.786,266.298 539.786,265.982C539.786,265.824 539.628,265.745 539.312,265.745L539.076,265.745C539.865,265.113 540.892,264.561 542.155,264.087C542.471,263.613 543.577,262.902 545.472,261.955C546.578,259.585 548.473,257.769 551.158,256.506L552.106,255.084L552.106,252.952C555.897,248.214 558.976,245.45 561.346,244.66C561.346,242.133 563.794,239.843 568.69,237.789L572.954,231.866L574.376,227.839L576.982,227.839C578.877,224.68 580.22,222.311 581.01,220.731L584.326,219.31L585.985,219.547L585.511,214.808L583.379,210.07L586.696,205.095L588.591,199.172C590.012,199.172 591.355,199.093 592.618,198.935C593.882,198.777 594.435,198.698 594.277,198.698C595.224,198.698 597.436,199.488 600.91,201.067L601.384,202.963L603.99,205.095L604.227,206.99L606.596,208.886L605.412,210.07C607.781,211.018 608.966,212.36 608.966,214.098C608.966,214.729 608.808,215.519 608.492,216.467L608.492,220.258C608.808,220.731 609.755,222.153 611.335,224.522L609.913,225.707L609.676,226.891L610.15,227.128L610.861,230.919L614.178,233.525L611.572,236.842L610.387,242.054L612.045,245.844L611.572,251.293L613.704,258.401C614.652,261.56 615.125,264.087 615.125,265.982C615.125,267.088 614.415,268.588 612.993,270.484C614.099,271.115 614.652,272.063 614.652,273.327C614.652,274.432 614.178,275.854 613.23,277.591L614.178,278.539L613.467,291.806L616.073,299.15L616.073,306.969C617.021,308.39 617.81,309.969 618.442,311.707C618.758,312.181 620.495,314.076 623.654,317.393C625.392,319.288 626.339,321.026 626.497,322.605Z" style="fill-rule:nonzero;"/>
        <path d="M799.919,260.533L797.55,265.508L796.603,273.327L794.233,275.459C793.286,281.777 790.838,285.804 786.889,287.541L785.231,288.252L771.016,298.203L766.751,300.572L759.881,308.153L755.616,307.442L753.01,309.338L748.272,310.996L736.426,317.156C735.478,316.84 734.215,316.129 732.635,315.024C731.53,316.603 729.792,317.63 727.423,318.104L726.476,318.104L721.737,321.894L720.79,321.42L716.288,321.42L714.156,323.079L705.153,322.842L693.307,324.737L691.886,324.737C690.78,324.737 689.438,324.895 687.858,325.211L681.225,324.263L680.04,323.079L670.564,321.657L666.536,319.762L660.85,319.762L660.85,317.156L656.349,312.418L650.426,309.812L647.82,302.467L647.583,297.018L646.161,295.36L645.924,284.699L649.004,275.222L648.53,269.536L649.715,268.351L649.715,263.85L653.032,260.533L653.032,258.164L654.453,255.558L654.453,253.189L655.401,252.004L654.216,249.398L658.007,246.792L662.508,237.315L672.222,223.337L674.591,222.153C675.065,221.363 675.776,220.336 676.723,219.073L679.093,217.178L679.093,213.387L682.646,212.676C685.015,210.781 687.621,209.359 690.464,208.412L691.649,206.99C693.071,206.358 697.177,205.569 703.969,204.621L710.365,203.673L717.947,204.621L722.448,204.384L728.845,204.384L730.266,204.621L730.977,204.858L732.162,204.858L733.583,204.384L741.164,204.621L740.691,206.043L744.244,206.99C745.192,206.674 745.666,206.043 745.666,205.095C746.455,206.516 748.193,207.227 750.878,207.227L752.773,209.122L759.881,209.122L775.754,215.993L777.649,221.205L779.071,223.337L783.335,224.996L789.732,235.42L793.523,240.158C797.787,250.109 799.919,256.032 799.919,257.927L799.919,260.533ZM782.151,261.955L780.966,255.321L782.151,253.426L780.492,249.398C780.65,249.082 780.729,248.608 780.729,247.977C780.729,247.503 780.571,247.108 780.255,246.792L775.991,243.949L774.569,240.158L772.674,239.448L771.963,236.131L766.04,230.682L762.487,227.839L761.065,228.55C757.433,225.233 750.72,222.469 740.927,220.258C739.664,220.258 738.874,220.179 738.558,220.021L737.374,220.731L733.109,219.547L730.74,220.731C728.371,219.942 726.949,219.547 726.476,219.547C726.318,219.547 725.725,219.705 724.699,220.021C723.672,220.336 722.764,220.494 721.974,220.494C721.184,220.494 720.553,220.415 720.079,220.258C718.973,222.311 716.367,224.127 712.261,225.707L709.181,225.233L705.864,226.891L701.599,226.417C698.756,228.629 695.44,230.919 691.649,233.288L690.464,234.946L689.28,240.158L683.831,242.528L682.883,243.712C681.935,245.607 680.672,247.345 679.093,248.924L679.093,252.952L675.776,254.373L675.065,254.847L672.933,261.955L669.616,263.85C669.142,271.905 667.8,277.512 665.588,280.671C664.325,282.408 663.614,284.777 663.456,287.778L662.508,290.384L663.219,292.043L663.93,295.597L666.773,298.677L667.247,301.756L669.616,304.126C674.038,306.653 677.987,307.995 681.462,308.153L691.412,305.547L693.544,307.679L696.387,307.679L696.861,307.205L703.969,306.021L711.55,307.205C712.813,305.942 714.314,305.31 716.051,305.31C719.684,303.099 722.764,301.993 725.291,301.993L730.266,299.15L734.057,298.913L737.137,296.544L744.481,296.307C745.113,296.149 745.824,296.07 746.613,296.07L747.087,295.36C748.193,293.78 749.851,292.754 752.062,292.28L754.905,285.646L756.801,286.831L758.696,285.883L762.013,282.803L763.197,283.277L767.225,280.434L774.332,273.327L777.412,272.379L778.834,268.825L780.729,267.641L780.255,265.508L782.151,261.955Z" style="fill-rule:nonzero;"/>
        <path d="M285.339,537.724C285.339,541.831 282.575,544.042 277.047,544.358C275.31,545.621 273.493,546.253 271.598,546.253L262.832,547.438L258.568,547.438L255.251,549.807L249.802,550.044L247.67,551.702L236.061,552.176L229.427,555.256L228.243,555.256C227.137,555.256 226.347,555.335 225.873,555.493L224.689,556.677C223.109,557.467 221.609,557.862 220.187,557.862C219.24,557.862 217.976,557.546 216.397,556.914L211.185,558.099L205.736,558.336L200.05,559.994L186.072,559.994L178.253,558.099L171.857,558.573L169.724,556.677L165.223,556.44C158.274,551.228 153.456,545.779 150.771,540.093C149.666,536.303 148.481,532.512 147.217,528.721L145.322,524.22L147.691,516.165L146.27,506.451L148.402,505.03L148.876,496.027L150.534,491.289L151.719,484.181L151.719,469.492L153.851,465.702L154.325,463.807L153.851,455.278L155.746,453.382L153.614,451.724L156.457,443.195L157.168,442.958L155.746,439.167L160.959,437.035C163.328,434.982 165.302,433.797 166.881,433.481L173.041,434.429L178.49,445.801L175.173,448.407C175.963,449.513 176.358,450.776 176.358,452.198L173.752,459.305L173.752,467.36L171.146,474.705L170.435,481.575L166.881,495.79L166.881,497.685C166.881,499.423 166.645,500.923 166.171,502.187L165.697,505.504L165.223,509.768L165.697,517.112L164.986,519.008L166.881,529.432L170.198,536.776L170.198,537.487L178.964,542.699L191.758,543.884L195.548,543.647L204.551,542.226L210.948,542.226L212.606,541.041L225.636,540.567L228.479,538.909L237.956,538.672L242.221,537.25L257.62,536.54L264.017,534.881C265.596,535.039 267.492,535.118 269.703,535.118L272.072,533.223C274.125,532.433 276.02,532.038 277.758,532.038C282.812,532.038 285.339,533.933 285.339,537.724Z" style="fill-rule:nonzero;"/>
        <path d="M442.651,497.449L440.282,502.424L439.334,510.242L436.965,512.374C436.017,518.692 433.569,522.719 429.621,524.457L427.962,525.168L413.747,535.118L409.483,537.487L402.612,545.069L398.348,544.358L395.742,546.253L391.003,547.911L379.158,554.071C378.21,553.755 376.946,553.045 375.367,551.939C374.261,553.518 372.524,554.545 370.155,555.019L369.207,555.019L364.469,558.81L363.521,558.336L359.02,558.336L356.888,559.994L347.885,559.757L336.039,561.653L334.618,561.653C333.512,561.653 332.169,561.811 330.59,562.126L323.956,561.179L322.772,559.994L313.295,558.573L309.268,556.677L303.582,556.677L303.582,554.071L299.08,549.333L293.157,546.727L290.551,539.383L290.314,533.933L288.893,532.275L288.656,521.614L291.736,512.137L291.262,506.451L292.447,505.267L292.447,500.765L295.763,497.449L295.763,495.079L297.185,492.473L297.185,490.104L298.133,488.92L296.948,486.313L300.739,483.707L305.24,474.231L314.954,460.253L317.323,459.068C317.797,458.279 318.507,457.252 319.455,455.988L321.824,454.093L321.824,450.302L325.378,449.592C327.747,447.696 330.353,446.275 333.196,445.327L334.381,443.906C335.802,443.274 339.909,442.484 346.7,441.536L353.097,440.589L360.678,441.536L365.18,441.3L371.576,441.3L372.998,441.536L373.709,441.773L374.893,441.773L376.315,441.3L383.896,441.536L383.422,442.958L386.976,443.906C387.924,443.59 388.397,442.958 388.397,442.01C389.187,443.432 390.924,444.143 393.609,444.143L395.505,446.038L402.612,446.038L418.486,452.908L420.381,458.121L421.802,460.253L426.067,461.911L432.464,472.335L436.254,477.074C440.519,487.024 442.651,492.947 442.651,494.842L442.651,497.449ZM424.882,498.87L423.698,492.236L424.882,490.341L423.224,486.313C423.382,485.998 423.461,485.524 423.461,484.892C423.461,484.418 423.303,484.023 422.987,483.707L418.723,480.864L417.301,477.074L415.406,476.363L414.695,473.046L408.772,467.597L405.218,464.754L403.797,465.465C400.164,462.148 393.452,459.384 383.659,457.173C382.395,457.173 381.606,457.094 381.29,456.936L380.105,457.647L375.841,456.462L373.472,457.647C371.103,456.857 369.681,456.462 369.207,456.462C369.049,456.462 368.457,456.62 367.43,456.936C366.404,457.252 365.496,457.41 364.706,457.41C363.916,457.41 363.284,457.331 362.81,457.173C361.705,459.226 359.099,461.043 354.992,462.622L351.912,462.148L348.596,463.807L344.331,463.333C341.488,465.544 338.171,467.834 334.381,470.203L333.196,471.862L332.011,477.074L326.562,479.443L325.615,480.628C324.667,482.523 323.404,484.26 321.824,485.84L321.824,489.867L318.507,491.289L317.797,491.763L315.664,498.87L312.347,500.765C311.874,508.82 310.531,514.427 308.32,517.586C307.056,519.324 306.346,521.693 306.188,524.694L305.24,527.3L305.951,528.958L306.662,532.512L309.505,535.592L309.978,538.672L312.347,541.041C316.77,543.568 320.719,544.911 324.193,545.069L334.144,542.462L336.276,544.595L339.119,544.595L339.593,544.121L346.7,542.936L354.282,544.121C355.545,542.857 357.046,542.226 358.783,542.226C362.416,540.014 365.496,538.909 368.023,538.909L372.998,536.066L376.788,535.829L379.868,533.46L387.213,533.223C387.845,533.065 388.555,532.986 389.345,532.986L389.819,532.275C390.924,530.696 392.583,529.669 394.794,529.195L397.637,522.562L399.532,523.746L401.428,522.798L404.744,519.719L405.929,520.192L409.957,517.349L417.064,510.242L420.144,509.294L421.565,505.741L423.461,504.556L422.987,502.424L424.882,498.87Z" style="fill-rule:nonzero;"/>
        <path d="M617.021,517.586L608.255,529.195L612.756,535.355L608.966,537.724L608.255,543.884L606.833,547.438C606.833,550.123 606.438,552.255 605.649,553.834L608.255,556.204L606.833,561.889L608.018,566.865L607.307,568.76L609.913,571.366L606.833,574.683L608.018,579.184L606.359,582.975C607.465,585.976 608.018,588.503 608.018,590.556L608.018,591.504L610.861,596.479C610.545,602.165 608.097,605.008 603.517,605.008C601.463,605.008 598.778,603.034 595.461,599.085L594.514,593.636C592.303,590.951 591.118,588.898 590.96,587.476L588.354,581.553L588.354,578.474L587.169,576.578L587.169,575.631L584.563,574.683L585.037,573.972C585.037,571.603 585.353,569.787 585.985,568.523L585.985,566.391C585.985,565.285 586.143,564.101 586.459,562.837L585.748,560.468L583.379,559.52C586.064,557.783 587.406,556.125 587.406,554.545C587.406,554.229 587.288,553.676 587.051,552.887C586.814,552.097 586.696,551.544 586.696,551.228L585.748,543.41L586.932,540.567C581.878,542.147 577.456,542.936 573.665,542.936C573.507,542.936 573.191,542.857 572.718,542.699C572.244,542.699 571.849,542.699 571.533,542.699C571.217,542.699 570.585,542.857 569.638,543.173L566.084,546.49L556.844,548.148L552.343,550.518L546.894,550.518L542.866,552.413L537.891,552.176L534.1,554.308L531.731,553.834C529.836,554.624 527.151,555.256 523.676,555.73C521.149,556.046 519.491,556.677 518.701,557.625C517.121,557.151 515.937,556.361 515.147,555.256C514.673,555.414 513.884,555.493 512.778,555.493L507.566,558.099L504.012,555.493C501.801,555.493 498.642,555.019 494.535,554.071L492.64,555.256L488.376,553.361L481.742,553.361L478.188,550.281L472.739,548.148L462.078,537.724L460.657,530.854L457.34,526.352L458.761,522.798C458.761,522.483 458.84,522.009 458.998,521.377C458.998,520.745 458.998,520.271 458.998,519.955L456.392,516.402L459.709,510.716L460.893,510.479L466.579,501.002L466.579,498.87L468.001,498.396L468.712,497.685L470.133,498.396C471.871,498.238 472.818,496.501 472.976,493.184L474.635,493.895C475.424,492.631 476.846,491.131 478.899,489.393L478.188,488.446L478.899,486.787L481.742,484.655L482.216,484.418L485.059,479.443L486.717,480.628L488.849,480.628L491.692,475.889L497.615,474.705L499.748,472.572C499.432,472.257 499.274,471.941 499.274,471.625C499.274,471.625 499.432,470.993 499.748,469.729L502.354,469.256L503.775,468.071L504.723,469.256L506.381,467.834L507.092,465.702L512.067,465.228L516.095,461.674L520.596,460.964L522.255,459.305L524.624,460.016L526.045,457.647L527.94,459.305C528.098,458.357 528.177,457.884 528.177,457.884C528.177,456.304 529.204,455.278 531.257,454.804C533.311,452.593 535.759,451.487 538.602,451.487L542.866,451.487L543.577,451.013L547.604,447.459L549.974,447.933L554.001,445.801L555.66,445.801C557.713,445.011 559.371,444.616 560.635,444.616L564.899,442.247L567.268,442.958L568.927,442.958L570.111,440.826L575.797,441.3L577.456,441.063L578.64,438.457L585.985,441.536L590.249,441.536L595.224,445.09C598.067,446.196 600.989,447.696 603.99,449.592C603.832,457.173 598.857,461.595 589.065,462.859L582.905,459.779L581.01,460.49L576.982,459.068L574.613,460.49L570.111,459.305L562.53,463.096L559.213,461.2L555.423,462.385C554.001,462.701 552.975,463.254 552.343,464.043C549.5,466.413 546.578,467.597 543.577,467.597L541.919,467.597C535.285,471.546 529.836,474.073 525.571,475.178L524.624,477.548L521.781,477.548L519.885,480.391L516.095,480.864C513.568,483.076 510.804,484.892 507.803,486.313C506.381,486.945 504.96,487.577 503.538,488.209L497.141,493.895L493.588,496.501L489.56,501.476L483.4,506.451L483.4,510.953L481.505,512.611L477.714,521.377L477.714,524.457C480.399,527.142 481.979,529.985 482.453,532.986L483.163,533.697L488.613,536.303L494.299,537.724L501.88,537.487L511.356,539.383L513.015,539.146L514.91,539.383L527.94,538.435L528.651,538.198C530.231,537.724 533.39,537.092 538.128,536.303L542.155,534.881L552.106,534.17L567.742,530.617C570.427,528.879 573.586,527.853 577.219,527.537L580.536,527.774C583.221,529.195 584.642,530.617 584.8,532.038L587.169,526.826L584.8,528.958L584.8,524.694L587.169,524.22L590.012,520.429C589.538,519.955 588.986,519.087 588.354,517.823C588.354,517.034 588.472,516.204 588.709,515.336C588.946,514.467 589.065,513.954 589.065,513.796C589.065,512.058 588.196,509.215 586.459,505.267C589.144,503.687 591.987,502.898 594.988,502.898C597.831,502.898 600.437,503.45 602.806,504.556L604.938,506.688C607.465,507.794 609.439,509.136 610.861,510.716L617.021,517.586Z" style="fill-rule:nonzero;"/>
        <path d="M790.68,497.449L788.31,502.424L787.363,510.242L784.994,512.374C784.046,518.692 781.598,522.719 777.649,524.457L775.991,525.168L761.776,535.118L757.511,537.487L750.641,545.069L746.376,544.358L743.77,546.253L739.032,547.911L727.186,554.071C726.239,553.755 724.975,553.045 723.396,551.939C722.29,553.518 720.553,554.545 718.184,555.019L717.236,555.019L712.498,558.81L711.55,558.336L707.049,558.336L704.916,559.994L695.914,559.757L684.068,561.653L682.646,561.653C681.541,561.653 680.198,561.811 678.619,562.126L671.985,561.179L670.8,559.994L661.324,558.573L657.296,556.677L651.61,556.677L651.61,554.071L647.109,549.333L641.186,546.727L638.58,539.383L638.343,533.933L636.922,532.275L636.685,521.614L639.765,512.137L639.291,506.451L640.475,505.267L640.475,500.765L643.792,497.449L643.792,495.079L645.214,492.473L645.214,490.104L646.161,488.92L644.977,486.313L648.767,483.707L653.269,474.231L662.982,460.253L665.351,459.068C665.825,458.279 666.536,457.252 667.484,455.988L669.853,454.093L669.853,450.302L673.407,449.592C675.776,447.696 678.382,446.275 681.225,445.327L682.409,443.906C683.831,443.274 687.937,442.484 694.729,441.536L701.126,440.589L708.707,441.536L713.208,441.3L719.605,441.3L721.027,441.536L721.737,441.773L722.922,441.773L724.343,441.3L731.925,441.536L731.451,442.958L735.005,443.906C735.952,443.59 736.426,442.958 736.426,442.01C737.216,443.432 738.953,444.143 741.638,444.143L743.533,446.038L750.641,446.038L766.514,452.908L768.41,458.121L769.831,460.253L774.096,461.911L780.492,472.335L784.283,477.074C788.547,487.024 790.68,492.947 790.68,494.842L790.68,497.449ZM772.911,498.87L771.726,492.236L772.911,490.341L771.253,486.313C771.411,485.998 771.49,485.524 771.49,484.892C771.49,484.418 771.332,484.023 771.016,483.707L766.751,480.864L765.33,477.074L763.434,476.363L762.724,473.046L756.801,467.597L753.247,464.754L751.826,465.465C748.193,462.148 741.48,459.384 731.688,457.173C730.424,457.173 729.634,457.094 729.319,456.936L728.134,457.647L723.87,456.462L721.5,457.647C719.131,456.857 717.71,456.462 717.236,456.462C717.078,456.462 716.486,456.62 715.459,456.936C714.432,457.252 713.524,457.41 712.734,457.41C711.945,457.41 711.313,457.331 710.839,457.173C709.734,459.226 707.127,461.043 703.021,462.622L699.941,462.148L696.624,463.807L692.36,463.333C689.517,465.544 686.2,467.834 682.409,470.203L681.225,471.862L680.04,477.074L674.591,479.443L673.643,480.628C672.696,482.523 671.432,484.26 669.853,485.84L669.853,489.867L666.536,491.289L665.825,491.763L663.693,498.87L660.376,500.765C659.902,508.82 658.56,514.427 656.349,517.586C655.085,519.324 654.374,521.693 654.216,524.694L653.269,527.3L653.979,528.958L654.69,532.512L657.533,535.592L658.007,538.672L660.376,541.041C664.799,543.568 668.747,544.911 672.222,545.069L682.172,542.462L684.305,544.595L687.148,544.595L687.621,544.121L694.729,542.936L702.31,544.121C703.574,542.857 705.074,542.226 706.812,542.226C710.444,540.014 713.524,538.909 716.051,538.909L721.027,536.066L724.817,535.829L727.897,533.46L735.241,533.223C735.873,533.065 736.584,532.986 737.374,532.986L737.848,532.275C738.953,530.696 740.612,529.669 742.823,529.195L745.666,522.562L747.561,523.746L749.456,522.798L752.773,519.719L753.958,520.192L757.985,517.349L765.093,510.242L768.173,509.294L769.594,505.741L771.49,504.556L771.016,502.424L772.911,498.87Z" style="fill-rule:nonzero;"/>
    </g>
</svg>
